<svg width="16" height="9" viewBox="0 0 16 9" fill="none" xmlns="http://www.w3.org/2000/svg">
<path d="M2.57031 7.5946H0.405888C0.181431 7.5946 0 7.77631 0 8.00049C0 8.22437 0.181431 8.40637 0.405888 8.40637H2.57031C2.79477 8.40637 2.9762 8.22466 2.9762 8.00049C2.9762 7.77631 2.79477 7.5946 2.57031 7.5946ZM15.5941 7.5946H13.4297C13.2052 7.5946 13.0238 7.77631 13.0238 8.00049C13.0238 8.22437 13.2052 8.40637 13.4297 8.40637H15.5941C15.818 8.40637 16 8.22466 16 8.00049C16 7.77631 15.8183 7.5946 15.5941 7.5946ZM7.99967 2.9762C8.22413 2.9762 8.40556 2.79449 8.40556 2.57031V0.405886C8.40556 0.182002 8.22413 0 7.99967 0C7.77522 0 7.59379 0.181712 7.59379 0.405886V2.57031C7.59379 2.7942 7.77522 2.9762 7.99967 2.9762ZM4.44751 3.87375L2.91739 2.34363C2.7586 2.18541 2.50188 2.18541 2.34366 2.34363C2.18459 2.50242 2.18487 2.75914 2.34366 2.91736L3.87378 4.44806C4.032 4.60628 4.28901 4.60685 4.44751 4.44806C4.6063 4.28956 4.6063 4.03199 4.44751 3.87376V3.87375ZM13.6571 2.34305C13.4983 2.18427 13.2413 2.18483 13.0828 2.34305L11.5526 3.87317C11.3939 4.03139 11.3939 4.2884 11.5526 4.44747C11.7114 4.60569 11.9679 4.60569 12.1264 4.44747L13.6571 2.91677C13.815 2.75855 13.815 2.50126 13.6571 2.34304L13.6571 2.34305ZM7.99989 4.30938C5.96451 4.30938 4.30875 5.96492 4.30875 8.0003C4.30875 8.13757 4.31724 8.27287 4.33225 8.40647H11.6673C11.6823 8.27287 11.6913 8.13758 11.6913 8.0003C11.6911 5.96521 10.0355 4.30938 8.0002 4.30938H7.99989Z" fill="black"/>
</svg>
