<svg width="228" height="253" viewBox="0 0 228 253" fill="none" xmlns="http://www.w3.org/2000/svg">
<path d="M0 204.041L54.2175 160.485C62.4567 172.997 72.1247 182.267 83.2216 188.295C94.3184 194.323 107.303 197.339 122.175 197.342C137.275 197.342 148.551 193.936 156.003 187.123C163.454 180.311 167.172 171.655 167.157 161.155C167.216 156.829 166.52 152.524 165.099 148.426C163.724 144.629 161.099 141.335 157.221 138.542C153.344 135.75 147.91 133.405 140.919 131.509C133.934 129.612 124.839 128.215 113.634 127.32C91.8917 125.535 74.0431 123.133 60.0887 120.114C46.1343 117.096 35.1518 113.243 27.1412 108.557C19.1306 103.868 13.5821 98.2285 10.4959 91.6395C7.40968 85.0504 5.86502 77.4 5.86193 68.688C5.82411 59.4676 7.93652 50.3596 12.0391 42.0542C16.1571 33.6769 22.3357 26.4185 30.5749 20.2788C38.8142 14.1391 49.1109 9.22502 61.4651 5.53696C73.8223 1.85192 88.1227 0.00952148 104.366 0.00952148C131.592 0.00952148 155.275 4.25229 175.414 12.7381C195.554 21.224 212.829 32.834 227.241 47.5681L175.757 94.1364C167.978 81.4076 158.247 71.7472 146.563 65.1552C134.88 58.5631 120.693 55.27 104.005 55.276C88.6695 55.276 77.4569 58.7937 70.3669 65.829C63.277 72.8644 59.7242 81.0714 59.7088 90.4499C59.6959 94.6188 60.4525 98.7559 61.9423 102.663C63.4252 106.583 66.17 109.989 70.1769 112.881C74.1837 115.773 79.6765 118.285 86.6553 120.417C93.631 122.543 102.726 124.051 113.94 124.941C136.134 126.732 154.324 129.295 168.51 132.63C182.696 135.966 193.737 140.153 201.633 145.192C209.527 150.216 214.961 156.135 217.936 162.95C220.911 169.766 222.398 177.526 222.398 186.232C222.392 194.966 220.275 203.576 216.217 211.36C212.102 219.402 205.81 226.489 197.342 232.619C188.875 238.75 177.952 243.631 164.576 247.262C151.186 250.835 135.456 252.622 117.383 252.622C90.6081 252.622 67.4969 247.988 48.0496 238.722C28.6024 229.455 12.5859 217.895 0 204.041Z" fill="black"/>
</svg>
