<svg width="114" height="307" viewBox="0 0 114 307" fill="none" xmlns="http://www.w3.org/2000/svg">
<path d="M16.3489 302.374C10.9787 302.364 5.64631 303.928 0.577637 307L0 306.421C6.92504 294.843 10.9621 275.18 10.9621 247.413C10.9621 219.645 8.65482 202.288 6.73052 183.967H9.04085C15.9628 222.913 29.4268 256.281 38.0786 274.022C48.6576 293.116 61.3495 300.827 72.1262 300.827C81.7416 300.827 88.846 296.2 88.846 284.632C88.846 275.569 81.7294 268.238 71.5364 258.018C61.538 248.018 54.0353 237.387 54.0353 220.992C53.8438 201.904 58.8446 187.836 63.8453 175.868C68.846 164.105 73.6522 154.463 73.6522 144.627C73.6522 139.227 71.3449 137.301 67.8763 137.301C61.7234 137.301 55.9536 142.7 49.8007 155.426C42.6841 169.31 34.7985 179.531 22.6812 179.531C12.4882 179.531 6.14375 174.131 6.14375 159.284C6.14375 137.301 14.604 119.754 14.604 83.6919C14.604 60.9348 2.87275 46.2773 2.87275 29.3095C2.87275 8.48389 21.7206 0.578979 44.8 0.578979C65.3775 0.578979 80.1851 5.01037 94.8013 5.01037C100.131 5.06198 105.418 3.36176 110.381 0L111.15 0.578979C101.149 13.1101 96.3426 30.6622 96.3426 53.4141C96.3426 76.1659 96.534 97.5757 98.2638 113.196L95.7649 113.391C91.1472 77.908 79.9936 45.8932 70.5697 28.9253C61.5319 12.3417 55.1845 6.16832 48.837 6.16832C43.8363 6.16832 40.9513 10.026 40.9513 16.7732C40.9513 23.9098 44.2224 32.3936 48.837 43.0038C53.6463 54.1876 58.8385 67.4924 58.8385 85.6339C58.8385 123.817 21.9121 141.174 21.9121 161.805C21.9121 168.557 24.6054 171.278 28.6425 171.278C34.4184 171.278 39.6077 164.337 44.6054 153.537C53.2601 137.722 65.7635 122.68 88.2623 122.68C105.38 122.68 113.649 127.117 113.649 142.932C113.649 164.915 101.535 187.283 101.535 221.414C101.535 242.244 112.88 255.549 112.88 271.359C112.88 293.153 93.0715 306.458 67.6848 306.458C46.928 306.421 31.1566 302.374 16.3489 302.374Z" fill="black"/>
</svg>
