<svg width="235" height="257" viewBox="0 0 235 257" fill="none" xmlns="http://www.w3.org/2000/svg">
<path d="M77.4926 256.804C66.1812 256.804 55.1806 252.899 44.4907 245.088C33.8008 237.277 25.9258 226.524 20.8655 212.829C18.6433 205.342 17.5336 198.602 17.5364 192.61C17.5364 179.984 21.3729 169.492 29.0458 161.133C36.7187 152.775 46.512 148.602 58.4257 148.617C73.161 148.617 87.3958 155.144 101.13 168.198C103.349 170.122 105.924 172.581 108.853 175.577C111.781 178.574 114.053 180.929 115.667 182.642C121.718 189.494 127.17 195.058 132.024 199.333C136.774 203.551 142.08 207.011 147.774 209.603C153.121 212.101 158.894 213.412 164.737 213.454C167.765 213.454 169.984 213.244 171.399 212.811C178.063 211.316 184.526 207.251 190.788 200.614C197.05 193.978 202.149 185.74 206.084 175.901C210.001 166.159 212.009 155.674 211.988 145.085C211.988 136.531 210.776 128.828 208.353 121.976C205.328 112.562 200.482 104.693 193.816 98.3684C187.15 92.044 179.274 88.8875 170.191 88.8992C158.481 88.8992 145.76 95.961 132.028 110.085C131.019 111.16 127.789 114.803 122.338 121.014C119.065 125.276 115.576 129.348 111.889 133.211C108.897 136.312 105.474 138.91 101.741 140.914C94.0622 145.837 84.3707 148.298 72.666 148.298C70.6446 148.298 67.4132 148.084 62.9717 147.655C54.0704 146.578 45.4149 143.861 37.3953 139.629C29.3913 135.486 22.2408 129.705 16.3566 122.618C11.1078 116.418 6.99869 109.233 4.24076 101.433C1.43413 93.6439 -0.0031602 85.3763 9.21005e-06 77.0387C-0.00565414 66.1478 2.60061 55.4339 7.57398 45.9032C12.6205 36.0609 19.3845 28.358 27.866 22.7943C34.9339 17.8717 42.1022 15.4103 49.3708 15.4103C56.8375 15.4103 63.0969 17.9781 68.1489 23.1134C70.9731 25.8923 73.1954 29.287 74.6627 33.0636C76.1752 36.9136 77.6383 41.8361 79.0519 47.8312C80.8725 55.1174 82.6904 60.7876 84.5055 64.8416C86.3206 68.9038 89.2852 72.2656 92.9869 74.4594C94.1698 75.2458 95.527 75.689 96.9224 75.7447C97.6804 75.7535 98.4324 75.6017 99.1344 75.2984C99.8363 74.995 100.474 74.5462 101.01 73.9781C101.546 73.41 101.97 72.7342 102.256 71.9903C102.542 71.2464 102.685 70.4494 102.677 69.6461C102.677 68.1509 102.172 66.548 101.163 64.8372C100.356 63.2954 99.2761 61.933 97.9826 60.824C96.4672 59.4338 95.3067 58.3101 94.5009 57.4532C88.6431 51.2483 85.7155 43.3313 85.7183 33.7018C85.7059 28.8458 86.6325 24.0386 88.4409 19.5767C94.7003 6.52566 103.282 0 114.187 0C118.858 0.0566427 123.461 1.20765 127.664 3.37059C132.165 5.5836 136.225 8.68801 139.627 12.5164C143.556 16.8382 146.689 21.8999 148.863 27.4414C150.92 32.5703 152.001 38.0791 152.044 43.6518C152.044 49.4312 150.883 54.6204 148.562 59.2194C146.247 63.8119 142.577 67.4754 138.113 69.6505C136.294 70.726 133.872 71.2549 130.84 71.2549C125.997 71.2549 122.06 69.5427 119.03 66.1181C117.834 64.656 116.909 62.9683 116.303 61.1432C115.665 59.2049 115.16 57.2209 114.789 55.2063C113.777 50.5023 112.767 46.8592 111.761 44.277C110.715 41.4397 109.115 38.8684 107.066 36.7313C104.946 34.4842 102.674 33.3607 100.251 33.3607C98.2328 33.3628 96.2877 34.1643 94.7979 35.6078C93.3843 36.8931 92.6775 38.9261 92.6775 41.7065C92.6775 43.8486 92.8797 45.3466 93.2839 46.2005C93.889 48.1299 95.2517 50.1102 97.372 52.1416C99.4924 54.173 101.664 56.152 103.886 58.0785C104.287 58.5127 105.701 59.7966 108.127 61.93C110.398 63.9055 112.432 66.1695 114.182 68.6712C117.411 72.9555 119.027 78.0909 119.03 84.0772C119.023 87.5386 118.406 90.9681 117.21 94.189C116.079 97.3774 114.324 100.276 112.062 102.696C107.601 107.87 101.631 110.456 94.1503 110.456C86.8816 110.456 80.5219 107.46 75.0711 101.468C69.6202 95.4757 66.2884 86.5953 65.0756 74.8266L64.7744 64.553C64.7744 62.6295 64.8198 60.2206 64.9229 57.3309C65.0261 54.4412 64.9725 50.9701 64.7744 46.9C64.5682 38.9872 63.1546 33.1582 60.5337 29.4131C57.9128 25.668 54.6814 23.7954 50.8394 23.7954C46.1944 23.7954 41.8533 25.9347 37.816 30.2132C34.5819 33.8534 32.159 38.4014 30.5474 43.8573C28.9158 49.4165 28.0978 55.2076 28.1217 61.0294C28.1217 67.6657 28.8285 73.3359 30.2421 78.0399C33.4708 89.386 39.8828 99.1232 49.4781 107.252C59.0734 115.38 69.524 119.446 80.8299 119.449C88.9043 119.449 96.6777 117.202 104.15 112.708C106.977 110.778 113.338 105.856 123.233 97.94C138.983 85.533 154.027 79.328 168.363 79.3251C176.182 79.2632 183.908 81.1311 190.928 84.781C197.998 88.5031 204.403 93.4985 209.859 99.5444C216.523 106.181 222.378 114.955 227.424 125.867C232.488 136.857 235.081 148.942 234.998 161.173C235.004 172.259 232.729 183.214 228.332 193.274C222.07 207.829 213.085 219.384 201.377 227.938C189.67 236.492 177.454 240.772 164.729 240.778C154.828 240.778 146.044 238.21 138.377 233.074C131.306 228.371 125.703 223.235 121.567 217.669C117.43 212.102 112.736 204.826 107.483 195.84C102.225 186.628 97.3775 179.296 92.9415 173.846C88.5055 168.396 82.5487 163.634 75.0711 159.559C71.8369 157.852 68.1008 156.996 63.8628 156.993C59.6248 156.99 55.9904 158.06 52.9598 160.202C49.9346 162.344 48.422 165.234 48.422 168.871C48.4862 170.175 48.6897 171.467 49.0285 172.723C50.2358 176.576 52.5074 179.036 55.8433 180.102C59.1911 181.174 62.6601 181.762 66.1564 181.851C69.6876 181.962 72.2618 182.016 73.8789 182.013C81.7322 182.365 89.3369 185.032 95.8375 189.716C102.213 194.174 107.05 200.707 109.62 208.33C111.234 211.971 112.041 216.359 112.041 221.494C112.043 227.469 110.694 233.357 108.106 238.666C105.48 244.122 101.946 248.348 97.5041 251.344C92.0368 254.984 85.3663 256.804 77.4926 256.804Z" fill="black"/>
</svg>
