<svg width="193" height="264" viewBox="0 0 193 264" fill="none" xmlns="http://www.w3.org/2000/svg">
<path d="M103.913 132.61C40.5903 129.772 6.60448 117.286 6.60448 69.7245C6.60448 30.2224 29.4223 0 97.3091 0C162.021 0 188.552 21.3686 188.552 58.8558C188.552 85.0487 174.124 102.785 145.723 102.785C111.708 102.785 94.5029 76.592 59.5816 76.592C43.2831 76.592 30.7262 83.8284 30.7262 97.9606C30.7262 117.286 63.3232 126.566 104.764 128.978C164.799 131.39 192.265 149.126 192.265 193.055C192.265 235.792 166.755 264 92.6321 264C22.3361 264 0 241.042 0 203.555C0 177.362 16.2985 160.023 47.9601 160.023C83.7884 160.023 100.569 181.392 135.49 181.392C150.853 181.392 162.475 175.347 162.475 160.421C162.56 143.195 146.261 134.682 103.913 132.61Z" fill="black"/>
</svg>
