<svg width="125" height="53" viewBox="0 0 125 53" fill="none" xmlns="http://www.w3.org/2000/svg">
<g clip-path="url(#clip0_506_2205)">
<path d="M25.8173 52.9952C40.0757 52.9952 51.6345 41.1319 51.6345 26.4976C51.6345 11.8634 40.0757 0 25.8173 0C11.5588 0 0 11.8634 0 26.4976C0 41.1319 11.5588 52.9952 25.8173 52.9952Z" fill="black"/>
<path d="M14.218 20.0637C12.7856 20.0637 11.6323 20.5939 10.7849 21.6417L10.6712 20.2948H6.95084V33.0061H10.9151V24.0873C11.0792 23.8113 11.3135 23.5864 11.5928 23.4369C11.8722 23.2874 12.186 23.2189 12.5004 23.2388C13.1205 23.2388 13.5649 23.3789 13.7984 23.6631C14.032 23.9473 14.1519 24.3991 14.1519 25.0099V33.0127H18.1265V24.8424C18.1038 23.2601 17.7689 22.0574 17.1323 21.2663C16.4957 20.4751 15.5098 20.0637 14.218 20.0637Z" fill="white"/>
<path d="M26.3616 20.0636C25.2416 20.0356 24.135 20.3177 23.1579 20.8802C22.2581 21.421 21.5378 22.2273 21.091 23.1943C20.6073 24.2698 20.367 25.4438 20.3883 26.6282V26.9634C20.3883 28.817 20.9815 30.3442 22.1534 31.5023C23.3253 32.6604 24.8734 33.2481 26.7625 33.2481C27.7401 33.2544 28.7081 33.0485 29.6026 32.6436C30.4143 32.2953 31.1211 31.7315 31.6508 31.0104L31.686 30.9615L29.8463 28.728L29.7883 28.8023C29.1272 29.6507 28.1969 30.0749 27.023 30.0749C26.3945 30.1025 25.7777 29.8952 25.2868 29.4918C24.8484 29.0957 24.5503 28.5614 24.4394 27.973H31.9939V26.3737C31.9939 24.4054 31.4853 22.8464 30.4808 21.7434C29.4765 20.6405 28.0936 20.0636 26.3616 20.0636ZM24.4394 25.3535C24.6585 23.9303 25.2806 23.2324 26.3388 23.2324C26.5824 23.2161 26.8266 23.2514 27.0563 23.336C27.286 23.4207 27.4963 23.5529 27.674 23.7245C27.8355 23.9154 27.9577 24.1378 28.0334 24.3783C28.109 24.6189 28.1366 24.8727 28.1143 25.1244V25.3471L24.4394 25.3535Z" fill="white"/>
<path d="M41.7017 26.4883L44.9654 20.2948H40.8334L39.1058 23.6588L37.4336 20.2948H33.2563L36.5075 26.4883L33.0745 33.0042H37.2537L39.0953 29.3857L40.968 33.0042H45.1244L41.7017 26.4883Z" fill="white"/>
<path d="M65.0647 20.0815C64.4852 20.0724 63.9113 20.1967 63.3846 20.4452C62.8583 20.6937 62.3928 21.0601 62.0223 21.5174V15.0482H58.0539V33.0241H62.0181V23.9672C62.3283 23.4942 62.8614 23.2567 63.6033 23.2567C64.2091 23.2567 64.6369 23.4052 64.8891 23.6979C65.1413 23.9905 65.2651 24.472 65.2651 25.1147V33.0241H69.242V25.0193C69.2254 23.4073 68.8657 22.1686 68.1713 21.3392C67.4769 20.5099 66.431 20.0815 65.0647 20.0815Z" fill="black"/>
<path d="M77.4938 20.0817C76.3733 20.054 75.266 20.336 74.2882 20.8983C73.3886 21.4394 72.6683 22.2456 72.2213 23.2124C71.7375 24.2879 71.4971 25.4619 71.5185 26.6463V26.9814C71.5185 28.8352 72.1116 30.3624 73.2836 31.5205C74.4556 32.6786 76.0037 33.266 77.8927 33.266C78.8705 33.2726 79.8382 33.0664 80.7327 32.6615C81.5444 32.3132 82.2515 31.7497 82.7809 31.0283L82.8161 30.9797L80.9767 28.7462L80.9167 28.8205C80.2573 29.6689 79.3273 30.0931 78.151 30.0931C77.5234 30.1204 76.9072 29.9132 76.4169 29.5097C75.9787 29.1136 75.6806 28.5796 75.5697 27.9911H83.124V26.3918C83.124 24.4234 82.6157 22.8666 81.6111 21.7615C80.6066 20.6565 79.226 20.0817 77.4938 20.0817ZM75.5717 25.3716C75.7906 23.9484 76.413 23.2505 77.471 23.2505C77.7148 23.2343 77.9588 23.2696 78.1885 23.3543C78.4182 23.4389 78.6284 23.5711 78.8063 23.7426C78.9679 23.9335 79.09 24.1559 79.1657 24.3964C79.2415 24.637 79.2688 24.8908 79.2465 25.1425V25.3652L75.5717 25.3716Z" fill="black"/>
<path d="M95.532 30.1011V24.544C95.5092 23.1653 95.0338 22.0645 94.1142 21.2712C93.1944 20.4779 91.9399 20.0813 90.369 20.0813C88.7981 20.0813 87.4899 20.4673 86.4749 21.233C85.9944 21.5657 85.6021 22.0156 85.333 22.5425C85.0636 23.0693 84.9263 23.6565 84.933 24.2513V24.3297H88.8972V24.2513C88.8972 23.3795 89.3107 22.9553 90.1768 22.9553C91.1067 22.9553 91.5574 23.4962 91.5574 24.6118V25.1972H90.4599C88.5831 25.1972 87.1302 25.5536 86.1422 26.2578C85.1542 26.962 84.6394 28.0246 84.6394 29.4076C84.6316 29.9331 84.7388 30.454 84.9533 30.9314C85.168 31.4085 85.4847 31.8301 85.8796 32.1648C86.711 32.8955 87.7764 33.2845 88.8705 33.2572C90.0878 33.2572 91.0614 32.833 91.764 31.9953C91.8338 32.338 91.9464 32.6703 92.0989 32.9837L92.1195 33.0261H96.0465V32.7269V32.7099C95.72 32.1119 95.5486 31.2336 95.532 30.1011ZM91.5574 27.4434V29.3524C91.4017 29.6234 91.183 29.8509 90.9207 30.0141C90.5773 30.2248 90.1818 30.3289 89.7819 30.3132C89.4731 30.3254 89.1716 30.2143 88.9408 30.0036C88.8328 29.9021 88.7478 29.7775 88.6915 29.6385C88.6354 29.4997 88.6098 29.3499 88.6163 29.1998C88.6163 28.0182 89.2364 27.4456 90.528 27.4456L91.5574 27.4434Z" fill="black"/>
<path d="M102.356 15.0463H98.3816V33.0221H102.356V15.0463Z" fill="black"/>
<path d="M110.987 30.0334C110.522 30.0334 110.212 29.9484 110.061 29.7809C109.91 29.6135 109.833 29.2973 109.833 28.8497V23.1866H111.844V20.3126H109.833V17.1925H105.869V20.3126H104.309V23.1866H105.869V29.3377C105.869 30.6465 106.191 31.6368 106.83 32.2837C107.469 32.9308 108.463 33.2572 109.79 33.2572C110.526 33.2592 111.258 33.1449 111.96 32.918L112.014 32.899V29.9507L111.923 29.9675C111.613 30.0164 111.3 30.0383 110.987 30.0334Z" fill="black"/>
<path d="M123.914 21.3392C123.215 20.5035 122.169 20.0815 120.803 20.0815C120.223 20.0721 119.649 20.1963 119.123 20.4448C118.596 20.6933 118.13 21.0599 117.76 21.5174V15.0482H113.796V33.0241H117.76V23.9672C118.068 23.4942 118.602 23.2567 119.344 23.2567C119.951 23.2567 120.377 23.4052 120.631 23.6979C120.885 23.9905 121.007 24.472 121.007 25.1147V33.0241H124.982V25.0193C124.968 23.4073 124.606 22.1686 123.914 21.3392Z" fill="black"/>
</g>
<defs>
<clipPath id="clip0_506_2205">
<rect width="125" height="53" fill="white"/>
</clipPath>
</defs>
</svg>
