<svg width="177" height="24" viewBox="0 0 177 24" fill="none" xmlns="http://www.w3.org/2000/svg">
<path d="M5.25164 16.9294C5.38282 18.7997 5.91547 20.0867 7.47928 20.0867C8.99853 20.0867 9.48564 19.064 9.48564 17.7695C9.48564 16.1938 8.69358 15.2666 6.01448 13.8944C2.05868 11.8519 0.565184 10.1282 0.565184 6.7813C0.565184 2.8859 2.94579 0.331055 7.4575 0.331055C12.7637 0.331055 14.282 3.64776 14.3261 7.14416H9.28763C9.2 5.56006 8.91042 4.19575 7.42433 4.19575C6.26052 4.19575 5.74123 4.95019 5.74123 6.22093C5.74123 7.52534 6.25011 8.19808 8.72626 9.43566C12.9474 11.5608 14.7394 13.3583 14.7394 17.1873C14.7394 20.9496 12.539 23.9509 7.42779 23.9509C1.88988 23.9509 0.200341 20.7956 0.0889587 16.9294H5.25164Z" fill="black"/>
<path d="M19.965 5.0304H15.4741V0.749878H29.6537V5.0304H25.1866V23.5228H19.965V5.0304Z" fill="black"/>
<path d="M34.7861 18.6481L34.0114 23.5227H28.7784L33.2708 0.751251H40.625L45.1754 23.5227H39.7394L38.9409 18.6481H34.7861ZM38.2484 14.2468C37.7316 10.9246 37.2326 7.21734 36.945 5.12435H36.7727C36.5499 7.30793 35.994 10.9227 35.4554 14.2468H38.2484Z" fill="black"/>
<path d="M48.2772 5.0304H43.7868V0.749878H57.966V5.0304H53.4988V23.5228H48.2772V5.0304Z" fill="black"/>
<path d="M65.0469 0.749878V23.5213H59.8139V0.749878H65.0469Z" fill="black"/>
<path d="M110.673 0.749878H116.154V9.35846H120.099V0.749878H125.356V23.5213H120.099V13.7593H116.154V23.5228H110.673V0.749878Z" fill="black"/>
<path d="M140.65 13.8706H133.755V19.2971H141.561L140.95 23.5227H128.624V0.751251H140.963V5.03179H133.755V9.61281H140.65V13.8706Z" fill="black"/>
<path d="M149.243 18.6481L148.468 23.5227H143.235L147.728 0.751251H155.081L159.632 23.5227H154.196L153.398 18.6481H149.243ZM152.705 14.2468C152.188 10.9246 151.69 7.21734 151.401 5.12435H151.23C151.007 7.30793 150.451 10.9227 149.912 14.2468H152.705Z" fill="black"/>
<path d="M161.842 0.749878H168.347C174.29 0.749878 176.715 4.12399 176.715 11.698C176.715 19.767 174.322 23.5228 168.162 23.5228H161.842V0.749878ZM167.097 19.5472H168.069C170.503 19.5472 171.217 17.8289 171.217 11.6148C171.217 6.41451 170.573 4.76903 168.102 4.76903H167.097V19.5472Z" fill="black"/>
<path d="M86.0634 4.01804C84.2186 1.71312 81.4845 0.494812 78.1571 0.494812C70.747 0.494812 67.4298 6.2554 67.4298 11.9647C67.4298 15.3114 68.2771 18.1646 69.8797 20.2156C70.7364 21.3233 71.8587 22.214 73.1504 22.8114C74.5144 23.4415 76.0935 23.761 77.8438 23.761C79.6294 23.761 81.2428 23.4494 82.6379 22.8346C83.9581 22.2556 85.1148 21.3793 86.0108 20.2792C87.6834 18.2361 88.566 15.3775 88.566 12.012C88.5665 8.87339 87.6773 6.03404 86.0634 4.01804Z" fill="black"/>
<path d="M101.91 0.822815V8.1003C101.91 10.3815 101.923 12.7048 101.996 14.7685C100.932 12.5888 98.9648 8.68137 95.1996 1.20128L95.0102 0.824315H88.2383V23.5975H93.5696V16.3304C93.5696 13.8852 93.5624 11.2107 93.501 8.84633C94.5547 11.0453 96.5625 15.1638 100.545 23.2725L100.705 23.5975H107.244V0.822815H101.91Z" fill="black"/>
</svg>
