<svg width="142" height="31" viewBox="0 0 142 31" fill="none" xmlns="http://www.w3.org/2000/svg">
<path d="M27.0884 22.2225V2.15372H32.2439L32.3951 6.25123L31.3357 6.70882C31.6301 5.77156 32.1457 4.91885 32.8388 4.22258C33.5822 3.46094 34.4648 2.849 35.4387 2.41995C36.4406 1.96629 37.5282 1.73316 38.628 1.73634C40.145 1.73634 41.4156 2.03955 42.4399 2.64597C43.4912 3.28609 44.304 4.25283 44.7542 5.39845C45.2728 6.62516 45.5321 8.13706 45.5321 9.93414V22.2225H40.1353V10.3418C40.1586 9.56623 40.0295 8.7936 39.7553 8.06773C39.5363 7.49926 39.1285 7.02339 38.6003 6.71991C38.01 6.41496 37.3432 6.29008 36.6825 6.36077C36.1085 6.35276 35.5376 6.44666 34.9964 6.6381C34.5014 6.81049 34.0486 7.08604 33.668 7.44651C33.3059 7.79456 33.0104 8.20573 32.7958 8.65982C32.5768 9.12491 32.4664 9.63366 32.4727 10.1477V22.2239H27.0884V22.2225Z" fill="black"/>
<path d="M48.7519 22.223V2.15417H53.949L54.139 8.60619L53.2224 7.2764C53.5236 6.24489 54.0265 5.28341 54.702 4.44766C55.3569 3.62237 56.1779 2.94396 57.1119 2.45645C58.0056 1.98305 59.0015 1.73551 60.0128 1.7354C60.4314 1.73466 60.8492 1.77272 61.2607 1.8491C61.6086 1.91041 61.9512 1.99849 62.2855 2.11257L60.8489 8.03489C60.4964 7.86341 60.1276 7.72776 59.7479 7.63C59.315 7.51513 58.8688 7.45779 58.4209 7.45944C57.842 7.45361 57.2678 7.56345 56.732 7.78253C56.2244 7.98941 55.7654 8.29966 55.3842 8.69355C55.0001 9.09373 54.6973 9.56465 54.4926 10.0802C54.2744 10.6366 54.1657 11.2298 54.1723 11.8273V22.2271L48.7519 22.223Z" fill="black"/>
<path d="M71.3595 22.6091C69.7495 22.6262 68.173 22.1484 66.8433 21.2404C65.4746 20.2989 64.3754 19.0165 63.654 17.5201C62.871 15.9486 62.4791 14.1524 62.4781 12.1316C62.4772 10.1108 62.8752 8.32114 63.672 6.76256C64.4124 5.27196 65.5313 4.00195 66.9168 3.07965C68.3031 2.17578 69.928 1.70691 71.5828 1.73323C72.5067 1.7234 73.4255 1.87208 74.2992 2.17279C75.0844 2.443 75.8168 2.84743 76.4638 3.36807C77.0762 3.86599 77.6089 4.45473 78.0431 5.11385C78.466 5.76285 78.772 6.48088 78.9472 7.2354L77.8074 7.04544V2.15338H83.1654V22.2222H77.7409V17.4008L78.9528 17.2885C78.7423 18.011 78.4077 18.6913 77.9641 19.2992C77.4944 19.9477 76.9254 20.5182 76.278 20.9895C75.5888 21.4917 74.8283 21.888 74.0219 22.1653C73.1659 22.4625 72.2657 22.6125 71.3595 22.6091ZM72.8377 17.9416C73.7745 17.9623 74.6972 17.7114 75.4945 17.2192C76.2636 16.7283 76.8757 16.0271 77.2583 15.1989C77.6928 14.2417 77.9065 13.1992 77.8837 12.1483C77.9068 11.1139 77.6929 10.0879 77.2583 9.14897C76.8678 8.32585 76.2574 7.62668 75.4945 7.12863C74.7013 6.6252 73.7769 6.36758 72.8377 6.38817C71.9169 6.36892 71.0115 6.6269 70.2391 7.12863C69.4832 7.63225 68.8746 8.32753 68.4753 9.14342C68.0285 10.0789 67.8076 11.1062 67.8306 12.1427C67.807 13.1957 68.0277 14.2399 68.4753 15.1933C68.8645 16.0188 69.4751 16.7201 70.2391 17.2192C71.016 17.7091 71.9195 17.9603 72.8377 17.9416Z" fill="black"/>
<path d="M86.571 22.2226V2.15381H91.7709L91.8818 5.98786L91.0859 6.139C91.6338 4.82786 92.584 3.72466 93.7995 2.98856C94.4127 2.61625 95.0687 2.31966 95.7533 2.10527C96.4156 1.89452 97.1063 1.78604 97.8013 1.78357C98.7592 1.76984 99.7109 1.93733 100.607 2.27722C101.434 2.5999 102.166 3.12875 102.732 3.81361C103.373 4.62649 103.839 5.56383 104.098 6.56609L103.266 6.48982L103.531 5.88247C103.861 5.27202 104.282 4.71519 104.779 4.23099C105.293 3.73098 105.868 3.29645 106.489 2.93726C107.11 2.57562 107.773 2.28934 108.462 2.08447C109.117 1.88599 109.798 1.7837 110.482 1.7808C112.049 1.7808 113.351 2.09094 114.388 2.71123C115.451 3.3602 116.27 4.33984 116.722 5.49976C117.239 6.73849 117.498 8.2564 117.5 10.0535V22.2226H112.102V10.4251C112.128 9.66058 111.999 8.89865 111.722 8.18568C111.504 7.64359 111.119 7.18474 110.624 6.87531C110.055 6.5631 109.412 6.41252 108.764 6.4399C108.213 6.43344 107.665 6.52984 107.149 6.72416C106.671 6.90433 106.233 7.17454 105.858 7.52009C105.485 7.866 105.189 8.28653 104.99 8.75432C104.79 9.2221 104.691 9.72665 104.7 10.2351V22.2282H99.3142V10.3863C99.331 9.65135 99.1935 8.92106 98.9107 8.24253C98.6804 7.69207 98.2907 7.22313 97.7916 6.89611C97.2529 6.57594 96.6334 6.41757 96.007 6.4399C95.4556 6.43325 94.9077 6.52965 94.3916 6.72416C93.9185 6.90118 93.486 7.1719 93.1201 7.52009C92.7653 7.86373 92.4763 8.26928 92.2673 8.71676C92.0507 9.1797 91.9403 9.68521 91.9442 10.1963V22.2282L86.571 22.2226Z" fill="black"/>
<path d="M120.955 30.5787V2.15267H126.151L126.298 6.67034L125.312 6.32922C125.517 5.46941 125.972 4.68987 126.621 4.0898C127.373 3.37361 128.255 2.80869 129.22 2.42584C130.254 1.99589 131.363 1.77668 132.483 1.78105C134.132 1.75325 135.751 2.22241 137.129 3.12748C138.508 4.05281 139.622 5.32171 140.362 6.809C141.157 8.36666 141.555 10.1568 141.555 12.1794C141.588 14.0301 141.185 15.8625 140.38 17.5291C139.654 19.0305 138.537 20.3088 137.147 21.23C135.761 22.1345 134.135 22.6039 132.48 22.5778C131.34 22.5822 130.211 22.3558 129.162 21.9123C128.163 21.5046 127.255 20.9054 126.487 20.1485C125.81 19.5139 125.335 18.694 125.121 17.7912L126.369 17.2601V30.5801L120.955 30.5787ZM131.272 17.9423C132.199 17.9602 133.111 17.7093 133.898 17.2199C134.67 16.7264 135.287 16.0264 135.68 15.1995C136.126 14.2573 136.347 13.2244 136.326 12.1822C136.349 11.1456 136.128 10.1182 135.68 9.18292C135.288 8.36069 134.678 7.66153 133.916 7.16121C133.13 6.67007 132.217 6.41944 131.29 6.44015C130.357 6.41942 129.437 6.66315 128.636 7.14318C127.861 7.62857 127.242 8.3265 126.853 9.1538C126.429 10.1032 126.209 11.1313 126.209 12.1711C126.209 13.2109 126.429 14.2391 126.853 15.1885C127.242 16.0328 127.871 16.7439 128.662 17.2331C129.452 17.7223 130.369 17.968 131.298 17.9395L131.272 17.9423Z" fill="black"/>
<path d="M13.319 0.586914C10.3803 0.590393 7.56306 1.75972 5.48565 3.83823C3.40824 5.91674 2.2404 8.73459 2.23846 11.6733V12.028H7.77653V11.6733C7.77653 10.5762 8.10185 9.50379 8.71134 8.59162C9.32083 7.67945 10.1871 6.96849 11.2007 6.54867C12.2142 6.12884 13.3295 6.019 14.4055 6.23302C15.4815 6.44705 16.4698 6.97533 17.2456 7.75107C18.0213 8.52681 18.5496 9.51516 18.7636 10.5911C18.9776 11.6671 18.8678 12.7824 18.448 13.7959C18.0281 14.8095 17.3172 15.6758 16.405 16.2853C15.4928 16.8948 14.4204 17.2201 13.3234 17.2201H12.9701V22.7582H13.3234C16.2621 22.7582 19.0805 21.5908 21.1585 19.5128C23.2365 17.4348 24.4039 14.6164 24.4039 11.6776C24.4039 8.73891 23.2365 5.92054 21.1585 3.84254C19.0805 1.76454 16.2621 0.597131 13.3234 0.597131L13.319 0.586914Z" fill="black"/>
<path d="M12.7006 23.0131L13.3407 23.6529V22.7478L13.3407 13.3139L13.3407 13.3126C13.3392 12.8711 13.1628 12.4482 12.8501 12.1366L12.5881 12.3995L12.8501 12.1366C12.5374 11.8249 12.1139 11.6499 11.6724 11.6499H2.23846H1.33287L1.97335 12.2902L12.7006 23.0131Z" fill="black" stroke="white" stroke-width="0.75"/>
</svg>
