<svg width="117" height="35" viewBox="0 0 117 35" fill="none" xmlns="http://www.w3.org/2000/svg">
<path d="M-0.000244141 27.5046H9.81138V17.693C8.52292 17.6925 7.24703 17.946 6.05679 18.439C4.86654 18.932 3.78535 19.6547 2.87513 20.5659C1.03518 22.4073 0.00115696 24.9026 -0.000244141 27.5046Z" fill="black"/>
<path d="M-0.00012207 17.6926V7.88104H9.8115C9.80788 10.4846 8.77402 12.9807 6.93613 14.8232C6.02689 15.7366 4.94568 16.4606 3.75509 16.9531C2.5645 17.4456 1.28816 17.697 -0.00012207 17.6926Z" fill="black"/>
<path d="M9.81165 17.6926H19.6233V7.88095C17.0225 7.88095 14.5282 8.9144 12.6884 10.7542C10.8486 12.594 9.81387 15.0896 9.81165 17.6926Z" fill="black"/>
<path d="M42.9279 7.66787V12.0414H39.8196C36.283 12.0414 34.151 13.7948 34.151 17.5207V27.4831H29.3591V7.85716H33.9617V11.3639C34.4157 10.1955 35.2257 9.19928 36.2769 8.51634C37.3281 7.8334 38.5675 7.49824 39.8196 7.55828C40.2779 7.59813 42.5095 7.59813 42.9279 7.66787Z" fill="black"/>
<path d="M63.253 19.1869H48.5684C48.9171 22.6837 50.8896 24.2478 53.6692 24.2478C54.6195 24.318 55.5674 24.0822 56.3741 23.5749C57.1808 23.0676 57.8039 22.3154 58.1523 21.4284H62.7549C61.7586 25.4134 58.3416 27.9738 53.6293 27.9738C47.8511 27.9738 43.8562 23.9888 43.8562 17.7025C43.8562 11.4162 47.7316 7.43124 53.5496 7.43124C59.5271 7.43124 63.253 11.8147 63.253 18.0512V19.1869ZM48.6083 15.8395H58.4611C58.0825 13.07 56.369 11.1672 53.4799 11.1672C50.9395 11.1672 49.0665 12.6117 48.6083 15.8395Z" fill="black"/>
<path d="M85.9985 17.703C85.9985 23.9395 82.6113 27.9743 77.2116 27.9743C76.0275 28.0286 74.8488 27.7831 73.7848 27.2607C72.7207 26.7382 71.8058 25.9557 71.1246 24.9855V34.948H66.3327V7.89003H70.9353V10.7094C71.6027 9.66117 72.5338 8.80667 73.6353 8.23144C74.7368 7.65622 75.9701 7.38046 77.2116 7.43177C82.6113 7.43177 85.9985 11.4665 85.9985 17.703ZM81.1269 17.5536C81.1269 13.4092 79.1942 11.3968 76.0759 11.3968C72.9577 11.3968 71.015 13.5587 71.015 17.703C71.015 21.8474 72.9477 24.0192 76.0759 24.0192C79.2041 24.0192 81.1269 21.6979 81.1269 17.5536Z" fill="black"/>
<path d="M89.0056 0.437714H93.7776V27.5156H88.9857L89.0056 0.437714Z" fill="black"/>
<path d="M96.7665 17.7025C96.7665 11.466 100.801 7.43124 106.779 7.43124C112.756 7.43124 116.741 11.466 116.741 17.7025C116.741 23.939 112.756 27.9738 106.779 27.9738C100.801 27.9738 96.7665 23.9888 96.7665 17.7025ZM111.87 17.7025C111.87 13.5581 109.877 11.3963 106.779 11.3963C103.68 11.3963 101.678 13.5581 101.678 17.7025C101.678 21.8469 103.67 24.0187 106.779 24.0187C109.887 24.0187 111.899 21.8469 111.899 17.7025H111.87Z" fill="black"/>
</svg>
