<svg width="16" height="15" viewBox="0 0 16 15" fill="none" xmlns="http://www.w3.org/2000/svg">
<path d="M2.90816 7.11549H0.880282C0.669985 7.11549 0.5 7.28574 0.5 7.49577C0.5 7.70553 0.669985 7.87605 0.880282 7.87605H2.90816C3.11846 7.87605 3.28844 7.7058 3.28844 7.49577C3.28844 7.28574 3.11846 7.11549 2.90816 7.11549ZM15.1103 7.11549H13.0825C12.8722 7.11549 12.7022 7.28574 12.7022 7.49577C12.7022 7.70553 12.8722 7.87605 13.0825 7.87605H15.1103C15.3201 7.87605 15.4906 7.7058 15.4906 7.49577C15.4906 7.28574 15.3204 7.11549 15.1103 7.11549ZM7.99501 2.78844C8.20531 2.78844 8.37529 2.61819 8.37529 2.40816V0.380281C8.37529 0.170521 8.20531 0 7.99501 0C7.78471 0 7.61473 0.170249 7.61473 0.380281V2.40816C7.61473 2.61792 7.78471 2.78844 7.99501 2.78844ZM4.66694 3.62937L3.23335 2.19578C3.08458 2.04754 2.84405 2.04754 2.69581 2.19578C2.54677 2.34455 2.54704 2.58508 2.69581 2.73332L4.1294 4.16745C4.27764 4.31569 4.51843 4.31622 4.66694 4.16745C4.81571 4.01895 4.81571 3.77763 4.66694 3.62939V3.62937ZM13.2955 2.19524C13.1467 2.04647 12.9059 2.047 12.7574 2.19524L11.3238 3.62883C11.1751 3.77707 11.1751 4.01786 11.3238 4.1669C11.4726 4.31514 11.7129 4.31514 11.8614 4.1669L13.2955 2.73276C13.4435 2.58452 13.4435 2.34347 13.2955 2.19523L13.2955 2.19524ZM7.99521 4.03752C6.08824 4.03752 4.53693 5.58862 4.53693 7.49559C4.53693 7.62421 4.54489 7.75097 4.55894 7.87614H11.4312C11.4453 7.75097 11.4538 7.62422 11.4538 7.49559C11.4535 5.58889 9.90241 4.03752 7.9955 4.03752H7.99521Z" fill="white"/>
<path d="M13.0824 7.88427H15.1103C15.3206 7.88427 15.4906 7.71402 15.4906 7.50399C15.4906 7.29423 15.3206 7.1237 15.1103 7.1237H13.0824C12.8721 7.1237 12.7022 7.29395 12.7022 7.50399C12.7022 7.71402 12.8721 7.88427 13.0824 7.88427ZM0.880251 7.88427H2.90813C3.11843 7.88427 3.28841 7.71402 3.28841 7.50399C3.28841 7.29423 3.11843 7.1237 2.90813 7.1237H0.880251C0.67049 7.1237 0.499969 7.29395 0.499969 7.50399C0.499969 7.71402 0.670218 7.88427 0.880251 7.88427ZM7.99559 12.2113C7.78529 12.2113 7.61531 12.3816 7.61531 12.5916V14.6195C7.61531 14.8292 7.78529 14.9998 7.99559 14.9998C8.20589 14.9998 8.37587 14.8295 8.37587 14.6195V12.5916C8.37587 12.3818 8.20589 12.2113 7.99559 12.2113ZM11.3237 11.3704L12.7573 12.804C12.906 12.9522 13.1466 12.9522 13.2948 12.804C13.4438 12.6552 13.4436 12.4147 13.2948 12.2664L11.8612 10.8323C11.713 10.6841 11.4722 10.6835 11.3237 10.8323C11.1749 10.9808 11.1749 11.2221 11.3237 11.3704ZM2.6951 12.8045C2.84387 12.9533 3.08466 12.9528 3.23317 12.8045L4.66676 11.3709C4.81553 11.2227 4.81553 10.9819 4.66676 10.8329C4.51799 10.6846 4.27772 10.6846 4.12922 10.8329L2.69509 12.267C2.54711 12.4152 2.54712 12.6563 2.6951 12.8045ZM7.99539 10.9622C9.90236 10.9622 11.4537 9.41114 11.4537 7.50416C11.4537 7.37555 11.4457 7.24879 11.4317 7.12362L4.55936 7.12362C4.5453 7.24879 4.53682 7.37554 4.53682 7.50416C4.53708 9.41086 6.08848 10.9622 7.99539 10.9622Z" fill="white"/>
</svg>
