<svg width="131" height="29" viewBox="0 0 131 29" fill="none" xmlns="http://www.w3.org/2000/svg">
<path d="M47.4051 23.7171C52.0287 23.7171 54.9061 21.0364 55.3242 17.0523H52.1025C51.7582 19.3394 50.0612 20.9872 47.5035 20.9872C44.5031 20.9872 42.3389 18.5525 42.3389 14.5437C42.3389 10.6826 44.5277 8.3462 47.5773 8.3462C50.1104 8.3462 51.586 9.87099 51.9057 12.109H55.2504C54.8078 8.02649 51.7828 5.61633 47.5773 5.61633C42.7078 5.61633 39.0188 9.01022 39.0188 14.5437C39.0188 20.397 42.2897 23.7171 47.4051 23.7171Z" fill="black"/>
<path d="M57.8706 6.05901V23.2744H61.0923V6.05901H57.8706Z" fill="black"/>
<path d="M68.0813 23.2744V11.6417C68.0813 10.8793 68.0813 10.2153 67.9829 9.23156L76.0249 23.2744H80.255V6.05901H77.0333V16.4374C77.0333 17.3474 77.0578 18.2819 77.1316 19.0197L69.7044 6.05901H64.8595V23.2744H68.0813Z" fill="black"/>
<path d="M90.198 23.2744C96.125 23.2744 99.2484 19.8805 99.2484 14.6913C99.2484 9.084 95.9283 6.05901 90.1242 6.05901H84.0251V23.2744H90.198ZM87.2468 8.78888H89.9521C93.9116 8.78888 95.9529 10.9777 95.9529 14.6913C95.9529 18.6754 93.5919 20.5445 89.9767 20.5445H87.2468V8.78888Z" fill="black"/>
<path d="M114.48 23.2744V20.5445H105.356V15.7488H113.742V12.9944H105.356V8.78888H114.111V6.05901H102.134V23.2744H114.48Z" fill="black"/>
<path d="M120.63 23.2744V16.2899H124.246C126.336 16.2899 127.074 17.0277 127.074 19.0689V23.2744H130.32V18.7738C130.32 16.5604 129.263 15.134 127.295 14.7897C128.943 14.2978 130.591 12.9452 130.591 10.5842C130.591 7.58381 128.254 6.05901 125.033 6.05901H117.409V23.2744H120.63ZM120.63 8.78888H124.418C126.311 8.78888 127.271 9.62506 127.271 11.1744C127.271 12.7238 126.311 13.5354 124.418 13.5354H120.63V8.78888Z" fill="black"/>
<path d="M29.1768 15.046L26.06 11.9293L22.9432 15.046L26.06 18.1628L29.1768 15.046Z" fill="black"/>
<path fill-rule="evenodd" clip-rule="evenodd" d="M20.4252 22.0707C18.7354 23.5541 16.5208 24.4532 14.0956 24.4532C8.79389 24.4532 4.49578 20.1551 4.49578 14.8534C4.49578 9.5517 8.79389 5.2536 14.0956 5.2536C16.6476 5.2536 18.9661 6.24959 20.6857 7.8733C20.8222 8.00219 20.9543 8.13489 21.0832 8.27137C21.3971 8.59212 21.8575 9.07621 22.3162 9.60795C22.565 9.87279 22.8259 10.1609 23.0106 10.39L26.0688 7.33182C25.7657 6.9092 25.5213 6.58782 25.3673 6.38986C22.7952 2.97023 18.704 0.757812 14.0956 0.757812C6.31067 0.757812 0 7.06848 0 14.8534C0 22.6383 6.31067 28.9489 14.0956 28.9489C18.072 28.9489 21.6638 27.302 24.2261 24.653C24.2261 24.653 25.1311 23.7058 26.0497 22.6074L23.0671 19.6265C21.8355 20.8683 20.4252 22.0712 20.4252 22.0712V22.0707Z" fill="black"/>
</svg>
