<svg width="112" height="32" viewBox="0 0 112 32" fill="none" xmlns="http://www.w3.org/2000/svg">
<path d="M38.809 18.3542C38.809 12.2849 42.5592 8.06471 47.7903 8.06471C50.8703 8.06471 53.4331 9.50963 54.6938 11.7279L55.0641 8.65668H58.5908V28.2744H54.6938L54.247 25.6106C52.9863 27.6093 50.7585 28.8314 47.9371 28.8314C42.6294 28.8314 38.8058 24.538 38.8058 18.3574L38.809 18.3542ZM54.2502 18.316C54.2502 14.43 52.0224 11.7279 48.8308 11.7279C45.6392 11.7279 43.2997 14.4682 43.2997 18.3892C43.2997 22.3102 45.5274 25.1268 48.7574 25.1268C51.9873 25.1268 54.2502 22.3134 54.2502 18.316Z" fill="black"/>
<path d="M66.3642 24.796L65.9557 28.2746H62.4289V0.512451H66.8078V11.2125C68.2185 9.28698 70.558 8.06485 73.3411 8.06485C78.5371 8.06485 82.2139 12.285 82.2139 18.3543C82.2139 24.4236 78.5403 28.8284 73.306 28.8284C70.1878 28.8284 67.5898 27.2752 66.3642 24.7928V24.796ZM77.7233 18.3543C77.7233 14.4683 75.5338 11.7663 72.3421 11.7663C69.1505 11.7663 66.811 14.4301 66.811 18.2429C66.811 22.2785 69.1122 25.127 72.3421 25.127C75.5721 25.127 77.7233 22.3517 77.7233 18.3543Z" fill="black"/>
<path d="M85.2483 28.2746V0.512451H89.6272V28.2746H85.2483Z" fill="black"/>
<path d="M92.6475 18.5383C92.6475 12.0616 96.9148 8.06425 102.411 8.06425C107.907 8.06425 111.689 11.9503 111.801 18.3187V19.3562H97.0265C97.3233 22.7999 99.4777 25.1295 102.816 25.1295C105.079 25.1295 106.787 24.0188 107.457 22.0583H111.724C110.722 26.2785 107.418 28.831 102.778 28.831C96.7648 28.831 92.6443 24.5376 92.6443 18.5415L92.6475 18.5383ZM107.272 16.2818C106.716 13.4684 104.97 11.7657 102.408 11.7657C99.8447 11.7657 97.8786 13.4684 97.2116 16.2818H107.272Z" fill="black"/>
<path d="M29.9627 14.6658L27.0508 11.7535L15.3801 23.4257L7.85103 16.3675L10.6237 13.4088L15.2912 17.783L24.1892 8.8877L17.0352 1.74053C16.0955 0.800723 14.5681 0.800723 13.6284 1.74053L0.704766 14.6658C-0.234922 15.6056 -0.234922 17.1332 0.704766 18.073L13.6322 31.0021C14.5719 31.942 16.0994 31.942 17.0391 31.0021L29.9666 18.073C30.9062 17.1332 30.9062 15.6056 29.9666 14.6658H29.9627Z" fill="black"/>
</svg>
