<svg width="180" height="13" viewBox="0 0 180 13" fill="none" xmlns="http://www.w3.org/2000/svg">
<g clip-path="url(#clip0_506_2044)">
<path fill-rule="evenodd" clip-rule="evenodd" d="M4.09582 3.70897C4.16159 3.38245 4.44748 3.13391 4.78463 3.13391H7.57234C7.94504 3.13391 8.11105 2.96354 8.33256 2.63291L9.56106 0.349417C9.67682 0.134401 9.9032 0 10.1498 0H20.4086C20.6728 0 20.8925 0.201286 20.9137 0.461067C21.3264 5.52372 21.8495 8.95538 25.1618 12.0616C25.5093 12.3875 25.2871 13 24.8075 13H0.524258C0.0440362 13 -0.178607 12.3858 0.169381 12.0595C2.54044 9.83556 3.4904 7.40261 3.99219 4.25372C4.01731 4.09604 4.04809 3.9444 4.07898 3.79219C4.0846 3.76448 4.09022 3.73675 4.09582 3.70897ZM34.6491 12.9285C34.373 12.9285 34.1491 12.7074 34.1491 12.4348V3.60668C34.1491 3.33403 33.9253 3.113 33.6492 3.113H29.0168C28.7407 3.113 28.5168 2.89198 28.5168 2.61934V0.565263C28.5168 0.292617 28.7407 0.0715914 29.0168 0.0715914H43.8024C44.1717 0.0715914 44.4136 0.453479 44.2519 0.781393L43.2389 2.83546C43.1552 3.00526 42.9807 3.113 42.7894 3.113H38.7853C38.5092 3.113 38.2854 3.33403 38.2854 3.60667V12.4348C38.2854 12.7074 38.0615 12.9285 37.7854 12.9285H34.6491ZM52.5828 7.67513C52.9578 7.67513 53.1993 7.28264 53.0266 6.95401L51.3243 3.71593C51.1359 3.35751 50.6151 3.36193 50.433 3.72349L48.8017 6.96157C48.6364 7.28976 48.8781 7.67513 49.2493 7.67513H52.5828ZM56.4556 12.9285C56.2687 12.9285 56.0974 12.8256 56.0116 12.6618L55.0592 10.845C54.9732 10.6812 54.802 10.5783 54.6152 10.5783H47.3119C47.1115 10.5783 46.9304 10.6966 46.8519 10.8787L46.0981 12.628C46.0196 12.8102 45.8386 12.9285 45.6381 12.9285H42.603C42.2321 12.9285 41.9903 12.5438 42.155 12.2156L48.1109 0.346091C48.1952 0.177962 48.3688 0.0715914 48.5588 0.0715914H53.2653C53.4493 0.0715914 53.6184 0.171376 53.7056 0.331366L60.1728 12.2009C60.352 12.5298 60.1108 12.9285 59.7325 12.9285H56.4556ZM61.4566 12.4348C61.4566 12.7074 61.6804 12.9285 61.9565 12.9285H72.7739C76.388 12.9285 78.195 11.6958 78.195 9.23041V8.98844C78.195 8.45853 78.0953 7.98618 77.8958 7.57144C77.6963 7.1567 77.4323 6.83412 77.1037 6.60372C76.7752 6.36179 76.476 6.17745 76.2061 6.05073C76.1356 6.01762 76.0647 5.98647 75.9934 5.9573C75.8282 5.88973 75.8191 5.59725 75.9773 5.51503C76.1768 5.41135 76.3997 5.26734 76.6462 5.08301C76.8925 4.88716 77.0862 4.63371 77.227 4.32265C77.3795 4.00008 77.4558 3.64295 77.4558 3.25125V3.00932C77.4558 2.14528 77.092 1.44253 76.3645 0.901071C75.637 0.348083 74.405 0.0715914 72.6683 0.0715914H61.9565C61.6804 0.0715914 61.4566 0.292616 61.4566 0.565263V12.4348ZM66.0576 2.78467H71.9643C72.9148 2.78467 73.39 3.12453 73.39 3.80424V3.83879C73.39 4.53003 72.9148 4.87564 71.9643 4.87564H66.0576C65.7814 4.87564 65.5575 4.65462 65.5575 4.38197V3.27834C65.5575 3.0057 65.7814 2.78467 66.0576 2.78467ZM66.0576 7.606H72.3163C73.3958 7.606 73.9356 8.00346 73.9356 8.7984V8.86746C73.9356 9.20156 73.8182 9.49536 73.5836 9.74878C73.3489 10.0023 72.9265 10.129 72.3163 10.129H66.0576C65.7814 10.129 65.5575 9.90795 65.5575 9.63535V8.09967C65.5575 7.82702 65.7814 7.606 66.0576 7.606ZM79.8377 0.565263C79.8377 0.292616 80.0616 0.0715914 80.3374 0.0715914H83.4391C83.7149 0.0715914 83.9387 0.292617 83.9387 0.565263V9.23788C83.9387 9.51048 84.1625 9.73156 84.4383 9.73156H92.0382C92.3148 9.73156 92.5386 9.95256 92.5386 10.2252V12.4348C92.5386 12.7074 92.3148 12.9285 92.0382 12.9285H80.3374C80.0616 12.9285 79.8377 12.7074 79.8377 12.4348V0.565263ZM95.0511 0.0715914C94.7745 0.0715914 94.5507 0.292616 94.5507 0.565263V12.4348C94.5507 12.7074 94.7745 12.9285 95.0511 12.9285H108.026C108.302 12.9285 108.526 12.7074 108.526 12.4348V10.4326C108.526 10.1599 108.302 9.93891 108.026 9.93891H99.0992C98.8226 9.93891 98.5988 9.71791 98.5988 9.44523V8.32431C98.5988 8.05167 98.8226 7.83065 99.0992 7.83065H107.622C107.897 7.83065 108.121 7.60962 108.121 7.33698V5.38659C108.121 5.11395 107.897 4.89292 107.622 4.89292H99.0992C98.8226 4.89292 98.5988 4.6719 98.5988 4.39925V3.48571C98.5988 3.21306 98.8226 2.99204 99.0992 2.99204H107.85C108.126 2.99204 108.35 2.77101 108.35 2.49836V0.565263C108.35 0.292617 108.126 0.0715914 107.85 0.0715914H95.0511ZM110.393 0.565263C110.393 0.292616 110.617 0.0715914 110.893 0.0715914H113.994C114.271 0.0715914 114.495 0.292617 114.495 0.565263V9.23788C114.495 9.51048 114.719 9.73156 114.994 9.73156H122.455C122.826 9.73156 123.067 10.1164 122.903 10.4445L121.793 12.6541C121.708 12.8221 121.535 12.9285 121.346 12.9285H110.893C110.617 12.9285 110.393 12.7074 110.393 12.4348V0.565263ZM134.975 6.95401C135.149 7.28264 134.906 7.67513 134.532 7.67513H131.198C130.827 7.67513 130.586 7.28976 130.75 6.96158L132.382 3.72349C132.564 3.36193 133.085 3.35751 133.273 3.71593L134.975 6.95401ZM137.961 12.6618C138.046 12.8256 138.218 12.9285 138.405 12.9285H141.681C142.059 12.9285 142.301 12.5298 142.122 12.2009L135.655 0.331366C135.568 0.171376 135.398 0.0715914 135.214 0.0715914H130.504C130.316 0.0715914 130.144 0.175932 130.059 0.34158L123.949 12.2111C123.78 12.5396 124.021 12.9285 124.394 12.9285H127.441C127.631 12.9285 127.805 12.8221 127.889 12.654L128.793 10.8528C128.877 10.6847 129.051 10.5783 129.24 10.5783H136.564C136.751 10.5783 136.923 10.6812 137.008 10.845L137.961 12.6618ZM143.239 0.565263C143.239 0.292616 143.462 0.0715914 143.739 0.0715914H147.611C147.741 0.0715914 147.868 0.122221 147.961 0.212616L155.326 7.33692C155.642 7.64299 156.176 7.42164 156.176 6.98427V0.565263C156.176 0.292616 156.4 0.0715914 156.676 0.0715914H159.724C160 0.0715914 160.224 0.292617 160.224 0.565263V12.4348C160.224 12.7074 160 12.9285 159.724 12.9285H156.378C156.249 12.9285 156.123 12.8784 156.03 12.789L148.136 5.22202C147.818 4.91814 147.287 5.13997 147.287 5.57625V12.4348C147.287 12.7074 147.064 12.9285 146.787 12.9285H143.739C143.462 12.9285 143.239 12.7074 143.239 12.4348V0.565263ZM162.232 12.4348C162.232 12.7074 162.456 12.9285 162.732 12.9285H170.594C172.061 12.9285 173.357 12.796 174.484 12.531C175.61 12.2661 176.501 11.932 177.158 11.5287C177.815 11.1255 178.349 10.6359 178.76 10.0599C179.183 9.48383 179.465 8.93084 179.605 8.40092C179.746 7.85945 179.816 7.28343 179.816 6.67284V6.15442C179.816 5.636 179.758 5.15213 179.64 4.70283C179.535 4.24201 179.359 3.77544 179.112 3.30309C178.866 2.83075 178.509 2.41026 178.039 2.04159C177.569 1.66142 177.006 1.32156 176.349 1.02204C175.692 0.71098 174.871 0.474809 173.885 0.313522C172.899 0.152235 171.796 0.0715914 170.576 0.0715914H162.732C162.456 0.0715914 162.232 0.292616 162.232 0.565263V12.4348ZM166.333 3.60667C166.333 3.33403 166.557 3.113 166.833 3.113H170.592C174.101 3.113 175.855 4.21321 175.855 6.41363V6.51731C175.855 8.72926 174.101 9.83523 170.592 9.83523H166.833C166.557 9.83523 166.333 9.61423 166.333 9.34156V3.60667Z" fill="black"/>
</g>
<defs>
<clipPath id="clip0_506_2044">
<rect width="180" height="13" fill="white"/>
</clipPath>
</defs>
</svg>
