<svg width="161" height="28" viewBox="0 0 161 28" fill="none" xmlns="http://www.w3.org/2000/svg">
<g clip-path="url(#clip0_506_2177)">
<path d="M42.4381 0.780205L39.2943 6.18989H20.1613V6.13632L21.9195 3.08799C22.3282 2.37998 22.9162 1.79204 23.6242 1.38326C24.3322 0.974481 25.1353 0.759268 25.9529 0.759247L42.4381 0.780205Z" fill="black"/>
<path d="M20.1613 6.18988L18.3728 9.28246C17.964 9.99047 17.3761 10.5784 16.6681 10.9872C15.9601 11.396 15.157 11.6112 14.3394 11.6112H6.46825V11.5646L9.57246 6.18988H20.1613Z" fill="black"/>
<path d="M20.5292 22.4538L17.7045 27.3442H8.18686V27.3023L9.64 24.7849C10.0488 24.0769 10.6367 23.489 11.3447 23.0802C12.0527 22.6714 12.8558 22.4562 13.6734 22.4562L20.5292 22.4538Z" fill="black"/>
<path d="M36.3367 11.6112L33.2046 17.0325H14.0809V16.9859L15.8414 13.9376C16.2502 13.2296 16.8382 12.6417 17.5462 12.2329C18.2542 11.8241 19.0573 11.6089 19.8748 11.6089L36.3367 11.6112Z" fill="black"/>
<path d="M14.0809 17.0325L12.2948 20.1251C11.886 20.8331 11.2981 21.4211 10.5901 21.8298C9.88205 22.2386 9.07891 22.4538 8.26137 22.4539H0.387878V22.4073L3.4921 17.0325H14.0809Z" fill="black"/>
</g>
<path d="M54.7475 24.3502V15.1808H64.7986V13.0648H54.7475V6.1878H64.9749V4.07178H52.2201V24.3502H54.7475Z" fill="black"/>
<path d="M68.5273 24.3502L70.5845 18.2373H80.0478L82.1051 24.3502H84.7795L77.9318 4.07178H72.7006L65.8529 24.3502H68.5273ZM75.3162 4.18934L79.3425 16.1213H71.2899L75.3162 4.18934Z" fill="black"/>
<path d="M99.5934 22.2342H90.3358V4.07178H87.8084V24.3502H99.5934V22.2342Z" fill="black"/>
<path d="M100.235 14.211C100.235 20.3533 104.115 24.6441 109.581 24.6441C114.225 24.6441 117.634 21.7052 118.457 17.1793H115.841C115.165 20.5884 112.873 22.5281 109.816 22.5281C105.731 22.5281 102.969 19.2365 102.969 14.211C102.969 9.36181 105.614 5.89391 109.581 5.89391C112.755 5.89391 114.989 7.89236 115.665 11.3015H118.28C117.457 6.77558 114.107 3.77789 109.464 3.77789C103.997 3.77789 100.235 8.42136 100.235 14.211Z" fill="black"/>
<path d="M130.563 24.6441C136.176 24.6441 140.026 20.0007 140.026 14.211C140.026 8.42136 136.176 3.77789 130.563 3.77789C124.95 3.77789 121.1 8.42136 121.1 14.211C121.1 20.0007 124.95 24.6441 130.563 24.6441ZM130.563 22.5281C126.537 22.5281 123.833 19.0602 123.833 14.211C123.833 9.36181 126.537 5.89391 130.563 5.89391C134.589 5.89391 137.293 9.36181 137.293 14.211C137.293 19.0602 134.589 22.5281 130.563 22.5281Z" fill="black"/>
<path d="M146.761 24.3502V4.18934L154.901 24.3502H160.103V4.07178H157.576V24.2327L149.435 4.07178H144.233V24.3502H146.761Z" fill="black"/>
<defs>
<clipPath id="clip0_506_2177">
<rect width="42.0362" height="26.5733" fill="white" transform="translate(0.387878 0.768555)"/>
</clipPath>
</defs>
</svg>
