<svg width="177" height="31" viewBox="0 0 177 31" fill="none" xmlns="http://www.w3.org/2000/svg">
<path d="M30.6271 29.5429C32.952 29.5429 34.8366 27.6582 34.8366 25.3334C34.8366 23.0085 32.952 21.1239 30.6271 21.1239C28.3023 21.1239 26.4177 23.0085 26.4177 25.3334C26.4177 27.6582 28.3023 29.5429 30.6271 29.5429Z" stroke="black" stroke-width="1.67384"/>
<path d="M11.8181 18.4631V21.4528C11.8186 22.7019 12.3154 23.8997 13.199 24.7825C14.0826 25.6654 15.2808 26.1611 16.5299 26.1606C19.1309 26.1606 21.2336 24.1914 21.2336 21.5904L21.2476 21.4508C21.2476 18.8497 23.3562 16.7411 25.9573 16.7411C28.5585 16.7411 30.6671 18.8497 30.6671 21.4508" stroke="black" stroke-width="1.67384"/>
<path d="M31.9266 27.0288C31.7547 27.0285 31.5878 26.971 31.4523 26.8654L31.3945 26.8195C31.2732 26.7244 31.1128 26.6953 30.9659 26.7418L30.8982 26.7637C30.4915 26.8913 30.0583 26.6657 29.9295 26.2594C29.8776 26.0967 29.8818 25.9212 29.9415 25.7612L29.9654 25.6934C30.0188 25.5495 29.9979 25.3885 29.9096 25.2629L29.8657 25.2011C29.6193 24.853 29.7003 24.3712 30.0471 24.1228C30.1863 24.0252 30.3535 23.9755 30.5235 23.9813H30.5972C30.7531 23.9895 30.9027 23.9192 30.9958 23.7939L31.0377 23.7342C31.2134 23.4985 31.5075 23.3829 31.7966 23.4357C32.0858 23.4886 32.32 23.7008 32.401 23.9833L32.4209 24.0511C32.4606 24.2013 32.5728 24.3217 32.7199 24.372L32.7877 24.3959C33.0659 24.4897 33.2667 24.7334 33.3056 25.0245C33.3445 25.3156 33.2148 25.6035 32.971 25.7671L32.9112 25.809C32.7862 25.8963 32.7118 26.0392 32.7119 26.1917V26.2634C32.7098 26.4692 32.6258 26.6657 32.4784 26.8094C32.331 26.953 32.1324 27.032 31.9266 27.0288Z" fill="black"/>
<path fill-rule="evenodd" clip-rule="evenodd" d="M12.117 18.4787C11.9723 18.5333 11.8142 18.5417 11.6646 18.5026C10.5783 18.2276 5.91443 16.8503 2.80316 12.8143C-0.738618 8.21811 2.70749 2.57159 7.87765 3.91097C11.7124 4.90753 13.7036 8.32374 13.2232 10.9606C13.1066 11.6392 12.5303 12.1431 11.8422 12.1682C11.1541 12.1932 10.5427 11.7326 10.377 11.0643C10.1119 10.0498 10.1777 8.70842 11.1304 7.07804C13.3448 3.30904 15.617 1.24417 19.0431 1.33386C24.8232 1.48334 26.904 8.23206 22.573 12.003C20.4543 13.8387 16.4361 16.8065 12.117 18.4787Z" stroke="black" stroke-width="1.67384"/>
<path d="M44.3919 19.4255H44.3394V21.5053C44.3394 22.2606 43.6044 22.7815 42.8209 22.7815C41.7992 22.7815 41.2459 22.1434 41.2459 21.0732V3.08932C41.2155 2.47164 41.5278 1.88744 42.0582 1.56951C42.5887 1.25157 43.2511 1.25157 43.7815 1.56951C44.312 1.88744 44.6242 2.47164 44.5939 3.08932V11.0494H44.6464C45.4097 9.15126 47.5663 7.81852 49.836 7.81852C53.9121 7.92991 57.1533 11.2761 57.1347 15.3538C57.116 19.4314 53.8443 22.7478 49.7673 22.8219C47.5663 22.8462 45.1916 21.578 44.3919 19.4255ZM53.7171 15.3424C53.7171 13.4963 52.6047 11.8319 50.8989 11.1258C49.1931 10.4197 47.2299 10.8109 45.9251 12.1169C44.6202 13.4229 44.2307 15.3865 44.9384 17.0917C45.646 18.7968 47.3113 19.9077 49.1575 19.9061C50.3678 19.9071 51.5288 19.4265 52.3842 18.5703C53.2396 17.7142 53.7192 16.5527 53.7171 15.3424Z" fill="black"/>
<path d="M60.1183 21.0813V3.08932C60.088 2.47164 60.4002 1.88744 60.9307 1.56951C61.4611 1.25157 62.1235 1.25157 62.654 1.56951C63.1844 1.88744 63.4967 2.47164 63.4663 3.08932V21.0773C63.4967 21.6949 63.1844 22.2791 62.654 22.5971C62.1235 22.915 61.4611 22.915 60.9307 22.5971C60.4002 22.2791 60.088 21.6949 60.1183 21.0773V21.0813Z" fill="black"/>
<path d="M81.543 9.60803V21.2392C81.5642 21.662 81.402 22.0735 81.098 22.3681C80.7941 22.6628 80.3778 22.8122 79.9558 22.7779C79.1037 22.7779 78.5343 22.374 78.401 21.6108V19.4905H78.3485C77.6196 21.4897 75.727 22.8271 73.5991 22.8466C69.8391 22.8466 67.42 19.8418 67.42 15.9809V9.60803C67.3897 8.99035 67.7019 8.40615 68.2324 8.08821C68.7628 7.77028 69.4252 7.77028 69.9557 8.08821C70.4861 8.40615 70.7984 8.99035 70.768 9.60803V15.6659C70.768 17.9558 72.331 19.8499 74.4795 19.8499C76.519 19.8499 78.195 17.9074 78.195 15.5407V9.60803C78.1647 8.99035 78.4769 8.40615 79.0074 8.08821C79.5378 7.77028 80.2002 7.77028 80.7307 8.08821C81.2611 8.40615 81.5734 8.99035 81.543 9.60803Z" fill="black"/>
<path d="M97.9721 16.3761H87.92C88.3804 18.6579 90.2139 20.1158 92.7017 20.1158C94.143 20.1409 95.5224 19.5309 96.4738 18.4479C96.785 18.0227 97.2652 17.7531 97.7903 17.7088C98.1667 17.6868 98.5357 17.819 98.8123 18.0751C99.089 18.3312 99.2493 18.6889 99.2564 19.0658C99.24 19.5328 99.0515 19.9773 98.7273 20.3137C97.5642 21.7151 95.3349 22.8459 92.5927 22.8459C88.126 22.8459 84.6043 19.615 84.6043 15.3422C84.6043 11.239 87.8554 7.84656 92.5321 7.84656C96.6878 7.84656 100.044 11.1582 100.044 14.4456C100.041 14.9815 99.8164 15.4924 99.4243 15.8577C99.0322 16.223 98.5069 16.4106 97.9721 16.3761ZM96.8857 13.9529C96.3566 11.8165 94.7977 10.5645 92.528 10.5645C90.008 10.5645 88.4127 11.9498 87.9523 13.9529H96.8857Z" fill="black"/>
<path d="M106.13 19.4255H106.082V21.5053C106.082 22.2606 105.342 22.7815 104.559 22.7815C103.541 22.7815 102.988 22.1434 102.988 21.0732V3.08932C102.958 2.47164 103.27 1.88744 103.8 1.56951C104.331 1.25157 104.993 1.25157 105.524 1.56951C106.054 1.88744 106.366 2.47164 106.336 3.08932V11.0494H106.384C107.152 9.15126 109.308 7.81852 111.574 7.81852C115.65 7.92903 118.892 11.2743 118.874 15.3518C118.857 19.4293 115.586 22.7465 111.509 22.8219C109.308 22.8462 106.93 21.578 106.13 19.4255ZM115.459 15.3424C115.459 12.822 113.416 10.7788 110.896 10.7788C108.375 10.7788 106.332 12.822 106.332 15.3424C106.332 17.8629 108.375 19.9061 110.896 19.9061C112.106 19.9071 113.268 19.4267 114.124 18.5706C114.98 17.7145 115.46 16.5531 115.459 15.3424Z" fill="black"/>
<path d="M134.101 16.3767H124.041C124.498 18.6585 126.335 20.1165 128.819 20.1165C130.267 20.1432 131.652 19.5282 132.603 18.4364C132.915 18.0116 133.395 17.7422 133.92 17.6973C134.296 17.6753 134.665 17.8076 134.942 18.0636C135.218 18.3197 135.379 18.6774 135.386 19.0543C135.369 19.5221 135.179 19.967 134.853 20.3023C133.689 21.7036 131.464 22.8344 128.718 22.8344C124.255 22.8344 120.73 19.6036 120.73 15.3307C120.73 11.2275 123.985 7.83508 128.661 7.83508C132.817 7.83508 136.173 11.1467 136.173 14.4342C136.172 14.9718 135.949 15.4851 135.557 15.8528C135.165 16.2206 134.638 16.4101 134.101 16.3767ZM133.015 13.9536C132.49 11.8171 130.927 10.5652 128.661 10.5652C126.137 10.5652 124.546 11.9504 124.082 13.9536H133.015Z" fill="black"/>
<path d="M139.121 21.1176V9.4541C139.152 8.58407 139.866 7.89467 140.737 7.8952C141.562 7.88587 142.245 8.53618 142.276 9.36121V11.7844H142.324C142.821 9.45006 144.586 7.88712 146.52 7.85481C147.469 7.85481 147.966 8.4283 147.966 9.14313C147.966 9.9872 147.562 10.6334 146.508 10.8636C144.085 11.328 142.469 13.3352 142.469 16.1582V21.1337C142.469 22.0571 141.721 22.8057 140.797 22.8057C139.874 22.8057 139.125 22.0571 139.125 21.1337L139.121 21.1176Z" fill="black"/>
<path d="M150.49 21.1176V9.4541C150.52 8.58407 151.235 7.89467 152.105 7.8952C152.931 7.88587 153.614 8.53618 153.644 9.36121V11.7844H153.697C154.189 9.45006 155.954 7.88712 157.893 7.85481C158.838 7.85481 159.335 8.4283 159.335 9.14313C159.335 9.9872 158.931 10.6334 157.877 10.8636C155.453 11.328 153.838 13.3352 153.838 16.1582V21.1337C153.794 22.0263 153.058 22.7275 152.164 22.7275C151.27 22.7275 150.534 22.0263 150.49 21.1337V21.1176Z" fill="black"/>
<path d="M163.103 27.4259C163.099 27.1702 163.163 26.9181 163.288 26.6949L166.826 20.2736L161.293 10.274C161.166 10.0503 161.104 9.79601 161.112 9.53897C161.112 8.64679 161.835 7.92353 162.727 7.92353C163.348 7.95088 163.907 8.30825 164.193 8.86049L168.635 16.9377L173.009 8.86049C173.293 8.30062 173.86 7.93996 174.487 7.91949C175.38 7.91949 176.103 8.64275 176.103 9.53494C176.108 9.79299 176.046 10.0479 175.921 10.274L166.043 28.1488C165.764 28.6581 165.234 28.9788 164.653 28.9889C163.796 28.98 163.105 28.2835 163.103 27.4259Z" fill="black"/>
</svg>
