<svg width="105" height="22" viewBox="0 0 105 22" fill="none" xmlns="http://www.w3.org/2000/svg">
<path fill-rule="evenodd" clip-rule="evenodd" d="M29.7235 0C35.7765 0 40.6284 4.91438 40.6284 11.0304C40.6284 17.1338 35.7881 22 29.7235 22C23.6641 22 18.8483 17.139 18.8483 11.0304C18.8483 4.90914 23.6758 0 29.7235 0ZM50.5879 0.488636L54.3709 3.97791V17.9796H60.2176V21.4688H44.7413V17.9796H50.5879V3.97685L44.7413 3.97791V0.488636H50.5879ZM68.9699 0.488636L80.5362 15.3406V0.488636H84.2964V21.4688H80.6479L69.0827 6.49587V21.4688H65.3214V0.488636H68.9699ZM95.3216 0.488636L99.0729 3.97685V21.4688H95.3216V3.97685L89.5237 3.97791V0.488636H95.3216ZM29.5815 3.56538C25.5266 3.56538 22.1865 7.02364 22.1865 11.1509C22.1865 15.3065 25.5266 18.6777 29.5815 18.6777C33.6641 18.6777 37.0052 15.3065 37.0052 11.1509C37.0052 7.02364 33.6641 3.56538 29.5815 3.56538ZM7.95529 0.445765C11.8845 0.438453 15.1058 3.82995 15.1058 7.85853C15.1058 11.6552 11.7254 15.1227 8.14927 15.2656H3.46131V21.4688H0V15.2656L4.15185 11.7899H7.91863C9.88699 11.7899 11.5112 9.93146 11.5112 7.85853C11.5112 5.61444 10.1978 3.98948 7.92186 3.98737L3.46238 3.98526L3.46131 10.8582H0V0.454301L7.95529 0.445765ZM105 0.488636V3.95139L99.1141 3.95034V0.488636H105Z" fill="black"/>
</svg>
