<svg width="94" height="26" viewBox="0 0 94 26" fill="none" xmlns="http://www.w3.org/2000/svg">
<path d="M78.5804 0.739392L74.5169 14.5543L70.5663 0.739392C70.5004 0.504763 70.2935 0.345215 70.0583 0.345215H58.3852C58.103 0.345215 57.8773 0.570459 57.8584 0.870784L56.4193 25.0657C56.4005 25.3848 56.645 25.657 56.946 25.657H63.7185C64.0007 25.657 64.2265 25.4224 64.2453 25.1314L65.1859 8.55723L69.7667 25.2534C69.8326 25.4881 70.0395 25.657 70.2747 25.657H78.0724C78.3076 25.657 78.5145 25.4974 78.5804 25.2628L83.6033 7.79703L84.7038 25.1408C84.7226 25.4317 84.9484 25.657 85.2306 25.657H92.4828C92.7932 25.657 93.0283 25.3848 93.0095 25.0563L91.26 0.861399C91.2412 0.570459 91.0154 0.345215 90.7332 0.345215H79.0883C78.8531 0.345215 78.6556 0.504763 78.5804 0.739392Z" fill="black"/>
<path d="M11.7014 12.9964V17.2197H0.554968C0.253968 17.2197 0 17.4825 0 17.8016V25.0751C0 25.3942 0.244562 25.657 0.554968 25.657H22.8571C23.1581 25.657 23.4121 25.3942 23.4121 25.0751V13.5783C23.4121 13.2592 23.1676 12.9964 22.8571 12.9964H11.7014ZM0 0.927095V12.4239C0 12.743 0.244562 13.0058 0.554968 13.0058H11.7108V8.75432H22.8571C23.1581 8.75432 23.4121 8.49153 23.4121 8.17244V0.927095C23.4121 0.607999 23.1676 0.345215 22.8571 0.345215H0.554968C0.244562 0.345215 0 0.607999 0 0.927095Z" fill="black"/>
<path d="M45.6195 0.607999L40.3332 9.63652L35.1503 0.617384C35.0563 0.448452 34.8869 0.345215 34.6988 0.345215H30.0239H26.3837C25.9698 0.345215 25.7159 0.833243 25.9416 1.20865L35.7523 17.2385V25.1033C35.7523 25.413 35.9875 25.657 36.2791 25.657H44.4625C44.7541 25.657 44.9892 25.4036 44.9892 25.1033V17.2385L54.8658 1.21803C55.0915 0.842628 54.847 0.3546 54.4237 0.3546H50.3508H46.071C45.8922 0.345215 45.7229 0.448452 45.6195 0.607999Z" fill="black"/>
</svg>
