<svg width="127" height="33" viewBox="0 0 127 33" fill="none" xmlns="http://www.w3.org/2000/svg">
<path d="M13.5884 14.3157L7.998 19.7641L3.67516 15.3535L9.23309 9.90503L13.5884 14.3157ZM15.2461 11.332C13.4909 11.332 12.0608 9.90503 12.0608 8.15374C12.0608 6.40245 13.4909 4.97547 15.2461 4.97547C17.0012 4.97547 18.4313 6.40245 18.4313 8.15374C18.4313 9.90503 17.0012 11.332 15.2461 11.332ZM15.0185 26.899L9.88314 21.6776L21.4541 10.3591L26.5895 15.5805L15.0185 26.899ZM29.6122 14.867L15.9286 0.953991L15.8961 0.92156C15.6686 0.726972 15.4411 0.662109 15.2786 0.662109C14.9535 0.662109 14.726 0.824266 14.6285 0.92156L14.596 0.953991L0.652418 14.6076C0.457403 14.8021 0.327393 15.0616 0.327393 15.3535C0.327393 15.6454 0.4249 15.9048 0.619916 16.0994L7.57546 23.1694C7.60797 23.2019 7.64047 23.2343 7.70547 23.2667L14.2385 29.9151C14.4335 30.1097 14.6935 30.2394 14.986 30.2394C15.2786 30.2394 15.5386 30.1421 15.7336 29.9476L29.5797 16.3589C29.7747 16.1643 29.9047 15.9048 29.9047 15.6129C29.9047 15.321 29.8072 15.0616 29.6122 14.867Z" fill="black"/>
<g clip-path="url(#clip0_506_2048)">
<path d="M95.5162 27.0916C96.7444 27.046 97.8816 26.9546 99.0188 27.0916C100.02 29.3303 102.385 30.3811 104.978 29.6044C107.843 28.7363 108.344 27.183 108.025 23.1626C106.479 25.2642 104.477 26.0409 102.112 25.9495C99.7011 25.8581 97.7906 24.7616 96.335 22.8428C93.6967 19.4163 94.288 14.1624 97.6996 11.3755C100.383 9.13691 105.251 8.8171 108.071 12.5177C108.071 11.6497 108.071 10.9187 108.071 10.142C109.39 9.95926 110.573 10.0506 111.755 10.0506C111.983 10.5532 111.892 11.0557 111.892 11.5583C111.892 16.0812 111.892 20.6042 111.892 25.1271C111.892 29.4216 109.254 32.3913 104.978 32.8024C102.385 33.0765 99.8831 32.7567 97.7451 31.1577C96.3805 30.1983 95.6072 28.8734 95.5162 27.0916ZM108.071 17.9087C108.071 15.1218 106.069 13.0659 103.295 13.0659C100.565 13.0202 98.2455 15.2589 98.2455 17.863C98.291 20.5128 100.474 22.6144 103.158 22.6144C106.024 22.6601 108.071 20.6499 108.071 17.9087Z" fill="black"/>
<path d="M37.1095 3.15201C38.3831 3.15201 39.6113 3.15201 40.794 3.15201C41.0669 3.56318 40.9305 3.97436 40.9305 4.38554C40.9305 8.77142 40.9305 13.203 40.9759 17.5889C40.9759 19.6448 41.9312 21.2895 43.7962 22.1575C45.6612 23.0256 47.5717 22.9342 49.2548 21.6093C50.5739 20.5585 51.2108 19.1422 51.2108 17.4518C51.2108 13.0659 51.2108 8.72574 51.2108 4.33985C51.2108 3.97436 51.2108 3.60887 51.2108 3.15201C52.5299 3.10632 53.7581 3.01495 55.0772 3.15201C55.0772 4.75103 55.0772 6.30436 55.0772 7.8577C55.0772 11.1471 55.1227 14.3908 55.0772 17.6803C54.9863 22.523 51.6656 25.9495 46.662 26.4063C42.0222 26.8175 38.0647 23.7565 37.2004 19.0965C37.1549 18.8681 37.1095 18.594 37.1095 18.3199C37.1095 13.2944 37.1095 8.31456 37.1095 3.15201Z" fill="black"/>
<path d="M92.5139 26.1322C91.3312 26.1322 90.2395 26.1322 88.9659 26.1322C88.9659 25.3556 88.9659 24.5332 88.9659 23.3911C87.2828 25.7211 85.2813 26.6348 82.7795 26.4977C80.6415 26.3607 78.8675 25.4926 77.4574 23.8022C74.7736 20.5585 74.7736 15.8528 77.3664 12.5634C79.2769 10.1877 82.5975 9.1826 85.4633 10.142C86.8279 10.5989 87.9196 11.4212 88.8749 12.7918C88.8749 11.8324 88.8749 11.0557 88.8749 10.1877C90.1031 10.1877 91.2858 10.1877 92.5139 10.1877C92.5139 15.3959 92.5139 20.7412 92.5139 26.1322ZM79.0949 18.0914C79.0949 20.7869 81.3239 23.0256 84.0077 22.9799C86.7824 22.9799 88.8749 20.8326 88.8749 18.0458C88.8749 15.3046 86.7369 13.1573 83.9622 13.1573C81.2784 13.203 79.0949 15.3959 79.0949 18.0914Z" fill="black"/>
<path d="M61.855 26.0865C60.5813 26.0865 59.4896 26.0865 58.2614 26.0865C58.2614 20.7869 58.2614 15.4873 58.2614 10.0963C59.3531 10.0963 60.5358 10.0963 61.8095 10.0963C61.8095 10.7816 61.8095 11.4669 61.8095 12.472C63.2651 10.4618 64.9482 9.63946 67.0861 9.73084C68.9966 9.82221 70.6342 10.4618 71.8624 11.9695C72.8176 13.1573 73.2725 14.5736 73.3635 16.0812C73.4089 16.6295 73.4089 17.2234 73.4089 17.7716C73.4089 20.5128 73.4089 23.254 73.4089 26.0865C72.1808 26.0865 71.0436 26.0865 69.8154 26.0865C69.5425 25.7667 69.6789 25.3556 69.6789 24.9444C69.6789 22.386 69.7244 19.8732 69.6334 17.3148C69.5425 14.2995 67.45 12.7461 64.5843 13.4314C62.9922 13.7969 61.855 15.2132 61.8095 16.995C61.8095 19.9646 61.855 22.9799 61.855 26.0865Z" fill="black"/>
<path d="M114.803 10.0963C115.986 10.0963 117.123 10.0963 118.306 10.0963C118.306 15.396 118.306 20.6956 118.306 26.0409C117.123 26.2236 115.986 26.1779 114.803 26.1322C114.803 20.7413 114.803 15.4416 114.803 10.0963Z" fill="black"/>
<path d="M122.081 10.0963C123.309 10.0963 124.401 10.0963 125.584 10.0963C125.584 15.4416 125.584 20.6956 125.584 26.0865C124.401 26.2236 123.264 26.2236 122.081 26.1322C122.081 20.7412 122.081 15.4873 122.081 10.0963Z" fill="black"/>
<path d="M116.577 7.26379C115.349 7.30947 114.212 6.213 114.166 5.02516C114.121 3.79163 115.258 2.60378 116.532 2.5581C117.76 2.51241 118.897 3.60888 118.943 4.84241C118.988 6.12163 117.896 7.2181 116.577 7.26379Z" fill="black"/>
<path d="M123.901 2.55809C125.174 2.60377 126.266 3.74593 126.221 5.02515C126.175 6.25868 125.083 7.30946 123.81 7.26378C122.582 7.21809 121.49 6.12162 121.49 4.93378C121.444 3.70024 122.627 2.55809 123.901 2.55809Z" fill="black"/>
</g>
<defs>
<clipPath id="clip0_506_2048">
<rect width="89.1112" height="30.3357" fill="white" transform="translate(37.1095 2.55809)"/>
</clipPath>
</defs>
</svg>
