<svg width="135" height="21" viewBox="0 0 135 21" fill="none" xmlns="http://www.w3.org/2000/svg">
<g clip-path="url(#clip0_506_2140)">
<path d="M40.4443 11.1226L38.1215 13.5013L45.8145 20.9814H50.5437L40.4443 11.1226Z" fill="black"/>
<path d="M76.9955 13.1204H90.0867L94.3142 20.9814H98.0585L93.6824 12.823C95.1225 12.4513 96.0981 11.773 96.7113 11.1597C97.8634 10.0168 98.4952 8.44647 98.4952 6.71815C98.4952 3.54027 96.2003 0.102218 92.5117 0.102218C92.2701 0.102218 73.6972 0.092926 73.6972 0.092926V20.9814H76.9955V13.1204ZM76.9955 3.41947H91.8149L92.521 3.42877C94.1841 3.42877 95.2061 5.1385 95.2061 6.74602C95.2061 7.33142 95.0668 8.1677 94.3978 8.82744C93.7381 9.46859 92.6603 9.82169 91.2946 9.82169H76.9955V3.41947Z" fill="black"/>
<path d="M111.986 5.55664C112.692 4.25576 114.039 3.3823 115.526 3.3823H119.187C120.673 3.3823 122.03 4.19071 122.736 5.50089L126.285 11.6987H110.704L108.911 15.0066H128.106L131.172 21H134.926L125.644 3.89337C124.371 1.5239 121.89 0.0557556 119.196 0.0557556H119.177H115.535C112.85 0.0743397 110.379 1.54248 109.106 3.91195L99.8238 21H103.605L111.986 5.55664Z" fill="black"/>
<path d="M61.916 3.54027H70.3617V0.0929249H52.2997C43.947 0.0929249 38.7533 5.32434 34.4236 9.89602C30.5585 13.9752 27.223 17.6642 21.8248 17.6642H5.28665C4.20888 17.6642 3.33551 16.8093 3.33551 15.7593L3.35409 12.0518H24.0826V8.7531H3.36339L3.38197 5.31505C3.38197 4.26505 4.23675 3.3916 5.30523 3.3916H25.8107V0.0743408H5.27736C2.41569 0.0743408 0.0464554 2.43452 0.0464554 5.29646V15.7407C0.0464554 18.6212 2.38782 20.9628 5.27736 20.9628H21.8156C28.6259 20.9628 32.7977 16.419 36.8114 12.154C41.0668 7.65664 45.0898 3.53098 52.2904 3.53098H58.6084V20.9721H61.9067V3.54027H61.916Z" fill="black"/>
</g>
<defs>
<clipPath id="clip0_506_2140">
<rect width="135" height="21" fill="white"/>
</clipPath>
</defs>
</svg>
