<svg width="156" height="45" viewBox="0 0 156 45" fill="none" xmlns="http://www.w3.org/2000/svg">
<path d="M2 6.2692C2 3.91138 3.91139 2 6.2692 2H26.721C29.0788 2 30.9902 3.91139 30.9902 6.2692V26.3467V33.0633C30.9902 35.4211 29.0788 37.3325 26.721 37.3325H6.26919C3.91138 37.3325 2 35.4211 2 33.0633V26.3467V6.2692Z" stroke="black" stroke-width="2.56152"/>
<path d="M16.4943 45V36.4392M16.4943 2.25437V36.4392M16.4943 36.4392C16.5988 30.9939 20.7558 28.3255 25.3846 26.5067C28.6735 25.2143 30.9894 22.2009 30.9894 18.6672V18.6672" stroke="black" stroke-width="2.56152"/>
<path d="M16.4951 27.2242C16.5519 21.7554 12.2958 19.0877 7.61058 17.2753C4.31489 16.0003 2 12.9859 2 9.45224V9.45224" stroke="black" stroke-width="2.56152"/>
<path d="M53.333 20.4893H50.2482V26.0588C50.2482 26.5229 50.3665 26.8621 50.6031 27.0763C50.8396 27.2905 51.1854 27.4155 51.6404 27.4512C52.0954 27.4691 52.6596 27.4601 53.333 27.4244V30.5573C50.9124 30.8251 49.2017 30.6019 48.2007 29.8879C47.2179 29.1738 46.7266 27.8975 46.7266 26.0588V20.4893V17.1689V14.4645L50.2482 13.4202V17.1689H53.333V20.4893Z" fill="black"/>
<path d="M59.0049 19.4717C59.3324 18.6149 59.8693 17.9722 60.6155 17.5438C61.3799 17.1154 62.2262 16.9012 63.1543 16.9012V20.757C62.0806 20.6321 61.116 20.8463 60.2606 21.3997C59.4234 21.953 59.0049 22.8724 59.0049 24.1577V30.5573H55.4832V17.1689H59.0049V19.4717Z" fill="black"/>
<path d="M67.1371 25.2823C67.6103 26.9603 68.8933 27.7993 70.9863 27.7993C72.333 27.7993 73.3522 27.353 74.0438 26.4605L76.8829 28.0671C75.5362 29.9771 73.5524 30.9322 70.9317 30.9322C68.6749 30.9322 66.8641 30.2628 65.4991 28.9239C64.1341 27.5851 63.4517 25.8982 63.4517 23.8631C63.4517 21.8459 64.125 20.1679 65.4718 18.8291C66.8186 17.4724 68.5475 16.7941 70.6587 16.7941C72.6606 16.7941 74.3077 17.4724 75.5999 18.8291C76.9102 20.1858 77.5654 21.8638 77.5654 23.8631C77.5654 24.3094 77.5199 24.7825 77.4289 25.2823H67.1371ZM67.0825 22.6046H74.0438C73.8436 21.6942 73.425 21.0159 72.788 20.5696C72.1692 20.1233 71.4595 19.9002 70.6587 19.9002C69.7123 19.9002 68.9297 20.1412 68.3109 20.6231C67.6922 21.0873 67.2827 21.7478 67.0825 22.6046Z" fill="black"/>
<path d="M82.3468 25.2823C82.82 26.9603 84.1031 27.7993 86.196 27.7993C87.5428 27.7993 88.562 27.353 89.2536 26.4605L92.0927 28.0671C90.7459 29.9771 88.7622 30.9322 86.1415 30.9322C83.8847 30.9322 82.0739 30.2628 80.7089 28.9239C79.3439 27.5851 78.6614 25.8982 78.6614 23.8631C78.6614 21.8459 79.3348 20.1679 80.6816 18.8291C82.0284 17.4724 83.7573 16.7941 85.8685 16.7941C87.8704 16.7941 89.5175 17.4724 90.8096 18.8291C92.12 20.1858 92.7752 21.8638 92.7752 23.8631C92.7752 24.3094 92.7297 24.7825 92.6387 25.2823H82.3468ZM82.2922 22.6046H89.2536C89.0534 21.6942 88.6348 21.0159 87.9978 20.5696C87.379 20.1233 86.6692 19.9002 85.8685 19.9002C84.9221 19.9002 84.1395 20.1412 83.5207 20.6231C82.9019 21.0873 82.4924 21.7478 82.2922 22.6046Z" fill="black"/>
<path d="M101.078 30.9322C99.0217 30.9322 97.3018 30.2538 95.9187 28.8971C94.5537 27.5405 93.8712 25.8624 93.8712 23.8631C93.8712 21.8638 94.5537 20.1858 95.9187 18.8291C97.3018 17.4724 99.0217 16.7941 101.078 16.7941C102.407 16.7941 103.617 17.1065 104.709 17.7313C105.801 18.356 106.629 19.195 107.193 20.2483L104.163 21.9888C103.89 21.4354 103.471 20.998 102.907 20.6767C102.361 20.3554 101.743 20.1947 101.051 20.1947C99.9954 20.1947 99.1218 20.5428 98.4302 21.239C97.7386 21.9173 97.3928 22.7921 97.3928 23.8631C97.3928 24.9163 97.7386 25.791 98.4302 26.4872C99.1218 27.1656 99.9954 27.5048 101.051 27.5048C101.761 27.5048 102.389 27.353 102.935 27.0495C103.499 26.7282 103.917 26.2909 104.19 25.7375L107.248 27.4512C106.647 28.5044 105.801 29.3523 104.709 29.995C103.617 30.6198 102.407 30.9322 101.078 30.9322Z" fill="black"/>
<path d="M118.725 17.1689H122.247V30.5573H118.725V28.9775C117.669 30.2806 116.186 30.9322 114.275 30.9322C112.455 30.9322 110.89 30.2538 109.58 28.8971C108.287 27.5226 107.641 25.8446 107.641 23.8631C107.641 21.8816 108.287 20.2126 109.58 18.8559C110.89 17.4813 112.455 16.7941 114.275 16.7941C116.186 16.7941 117.669 17.4456 118.725 18.7488V17.1689ZM112.228 26.5943C112.937 27.2905 113.838 27.6386 114.93 27.6386C116.022 27.6386 116.923 27.2905 117.633 26.5943C118.361 25.8803 118.725 24.9699 118.725 23.8631C118.725 22.7564 118.361 21.8549 117.633 21.1587C116.923 20.4446 116.022 20.0876 114.93 20.0876C113.838 20.0876 112.937 20.4446 112.228 21.1587C111.518 21.8549 111.163 22.7564 111.163 23.8631C111.163 24.9699 111.518 25.8803 112.228 26.5943Z" fill="black"/>
<path d="M128.416 19.4717C128.743 18.6149 129.28 17.9722 130.026 17.5438C130.791 17.1154 131.637 16.9012 132.565 16.9012V20.757C131.491 20.6321 130.527 20.8463 129.671 21.3997C128.834 21.953 128.416 22.8724 128.416 24.1577V30.5573H124.894V17.1689H128.416V19.4717Z" fill="black"/>
<path d="M143.919 11.8136H147.44V30.5573H143.919V28.9775C142.881 30.2806 141.407 30.9322 139.496 30.9322C137.658 30.9322 136.084 30.2538 134.773 28.8971C133.481 27.5226 132.835 25.8446 132.835 23.8631C132.835 21.8816 133.481 20.2126 134.773 18.8559C136.084 17.4813 137.658 16.7941 139.496 16.7941C141.407 16.7941 142.881 17.4456 143.919 18.7488V11.8136ZM137.421 26.5943C138.149 27.2905 139.059 27.6386 140.151 27.6386C141.243 27.6386 142.144 27.2905 142.854 26.5943C143.564 25.8803 143.919 24.9699 143.919 23.8631C143.919 22.7564 143.564 21.8549 142.854 21.1587C142.144 20.4446 141.243 20.0876 140.151 20.0876C139.059 20.0876 138.149 20.4446 137.421 21.1587C136.712 21.8549 136.357 22.7564 136.357 23.8631C136.357 24.9699 136.712 25.8803 137.421 26.5943Z" fill="black"/>
<path fill-rule="evenodd" clip-rule="evenodd" d="M20.5433 18.2392C22.2346 18.4379 23.9987 17.9007 25.2966 16.6277C26.5942 15.3549 27.1419 13.6252 26.9397 11.9667C25.2484 11.7679 23.4843 12.3051 22.1864 13.5782C20.8888 14.8509 20.3411 16.5806 20.5433 18.2392Z" fill="black"/>
<path fill-rule="evenodd" clip-rule="evenodd" d="M12.668 13.1448C10.9767 13.3435 9.21262 12.8064 7.9147 11.5333C6.61712 10.2605 6.06941 8.53082 6.27157 6.87229C7.96288 6.67355 9.72697 7.21072 11.0249 8.4838C12.3225 9.75654 12.8702 11.4863 12.668 13.1448Z" fill="black"/>
<path fill-rule="evenodd" clip-rule="evenodd" d="M12.668 31.2969C10.9767 31.4956 9.21262 30.9584 7.9147 29.6853C6.61712 28.4126 6.06941 26.6829 6.27157 25.0243C7.96288 24.8256 9.72696 25.3628 11.0249 26.6359C12.3225 27.9086 12.8702 29.6383 12.668 31.2969Z" fill="black"/>
<path d="M151.731 12.1836V12.6795H151.021V14.8136H150.503V12.6795H149.796V12.1836H151.731ZM154.594 12.1836V14.8136H154.08V13.1078L153.339 14.3289H153.279L152.539 13.1116V14.8136H152.021V12.1836H152.554L153.309 13.4272L154.061 12.1836H154.594Z" fill="black"/>
</svg>
