<svg width="180" height="23" viewBox="0 0 180 23" fill="none" xmlns="http://www.w3.org/2000/svg">
<mask id="mask0_506_2117" style="mask-type:alpha" maskUnits="userSpaceOnUse" x="0" y="0" width="19" height="22">
<path fill-rule="evenodd" clip-rule="evenodd" d="M9.21886 1.66411C9.29456 1.60634 9.39955 1.60634 9.47525 1.66411L17.2499 7.5968C17.3607 7.68137 17.3607 7.84821 17.2499 7.93279L9.34706 13.9633L1.44424 7.93279C1.3334 7.84821 1.3334 7.68137 1.44423 7.5968L9.21886 1.66411ZM16.775 14.1001L13.9011 11.9071L13.8457 11.8648L10.9164 14.1001H16.775ZM14.72 11.1976L17.8934 13.6192C18.5606 14.1283 18.5606 15.1326 17.8934 15.6418L10.1188 21.5745C9.66305 21.9222 9.03106 21.9222 8.57535 21.5745L0.800725 15.6418C0.133523 15.1326 0.133523 14.1283 0.800725 13.6192L3.97409 11.1976L0.800725 8.77609C0.133524 8.26696 0.133522 7.26262 0.800724 6.75349L8.57535 0.820805C9.03106 0.473062 9.66305 0.473061 10.1188 0.820805L17.8934 6.75349C18.5606 7.26262 18.5606 8.26696 17.8934 8.77609L14.72 11.1976ZM4.84841 11.8648L4.79299 11.9071L1.44424 14.4625C1.3334 14.5471 1.3334 14.7139 1.44424 14.7985L9.21886 20.7312C9.29456 20.7889 9.39955 20.7889 9.47525 20.7312L16.775 15.1609H9.34706H9.1678L9.0253 15.0521L4.84841 11.8648Z" fill="white"/>
</mask>
<g mask="url(#mask0_506_2117)">
<path d="M0.381042 0.344086H18.9656V22.9266H0.381042V0.344086Z" fill="black"/>
</g>
<path d="M170.411 16.8409H171.597V8.0018L178.561 16.8409H179.534V6.05558H178.348V14.7021L171.556 6.05558H170.421V16.8409H170.411ZM156.27 12.8876L158.733 7.40374L161.186 12.8876H156.27ZM153.259 16.8409H154.506L155.783 13.9925H161.653L162.92 16.8409H164.227L159.311 5.97449H158.176L153.259 16.8409ZM136.757 16.8409H137.943V8.12344L141.876 13.881H141.937L145.87 8.10317V16.8409H147.086V6.05558H145.849L141.916 11.9449L137.993 6.05558H136.757V16.8409ZM125.322 17.0132C128.019 17.0132 129.823 15.3812 129.823 12.2389V6.05558H128.607V12.3301C128.607 14.6919 127.34 15.888 125.353 15.888C123.305 15.888 122.058 14.5804 122.058 12.249V6.05558H120.842V12.3301C120.842 15.3812 122.656 17.0132 125.322 17.0132ZM105.241 16.8409H106.458V11.9855H112.682V16.8409H113.898V6.05558H112.682V10.8502H106.458V6.05558H105.241V16.8409ZM91.2629 11.5597V7.18074H94.5878C96.3313 7.18074 97.345 7.98153 97.345 9.30942V9.33983C97.345 10.7285 96.1894 11.5597 94.5675 11.5597H91.2629ZM90.0465 16.8409H91.2629V12.6545H94.3445L97.4767 16.8409H98.9668L95.6521 12.4315C97.345 12.1274 98.5816 11.0732 98.5816 9.28914V9.25873C98.5816 8.40726 98.2775 7.65716 97.7504 7.13006C97.0713 6.45091 96.0069 6.05558 94.6891 6.05558H90.0465V16.8409ZM75.6726 16.8409H83.5488V15.736H76.889V11.9551H82.7784V10.8502H76.889V7.1706H83.4677V6.05558H75.6726V16.8409ZM62.5353 11.9246V7.18074H65.2621C67.0057 7.18074 68.1612 7.98153 68.1612 9.52228V9.55269C68.1612 10.9718 66.9854 11.9246 65.2013 11.9246H62.5353ZM61.3189 16.8409H62.5353V13.0397H65.1506C67.4415 13.0397 69.3878 11.8334 69.3878 9.51215V9.48174C69.3878 7.35306 67.7862 6.06572 65.3534 6.06572H61.3189V16.8409ZM49.8847 17.0132C52.5811 17.0132 54.3854 15.3812 54.3854 12.2389V6.05558H53.169V12.3301C53.169 14.6919 51.9019 15.888 49.9151 15.888C47.8675 15.888 46.6206 14.5804 46.6206 12.249V6.05558H45.4042V12.3301C45.4042 15.3812 47.2187 17.0132 49.8847 17.0132ZM35.3587 16.9929C37.4976 16.9929 39.0383 15.7867 39.0383 13.9418V13.9114C39.0383 12.2592 37.9334 11.3874 35.5209 10.8603C33.1489 10.3535 32.5914 9.78584 32.5914 8.76204V8.74177C32.5914 7.76866 33.4834 6.99828 34.8823 6.99828C35.9872 6.99828 36.9907 7.35306 37.9943 8.17412L38.7038 7.23142C37.6192 6.34954 36.494 5.90353 34.9228 5.90353C32.8752 5.90353 31.375 7.15033 31.375 8.84314V8.87354C31.375 10.6474 32.5103 11.4482 34.9938 11.9855C37.2543 12.4619 37.8017 13.0295 37.8017 14.0331V14.0635C37.8017 15.1278 36.8488 15.8982 35.3993 15.8982C33.9092 15.8982 32.8245 15.3914 31.6993 14.3777L30.9492 15.2697C32.2467 16.4253 33.6456 16.9929 35.3587 16.9929Z" fill="black"/>
</svg>
