<svg width="120" height="37" viewBox="0 0 120 37" fill="none" xmlns="http://www.w3.org/2000/svg">
<g clip-path="url(#clip0_506_2104)">
<path d="M17.9531 17.8234C17.9531 22.0461 14.9109 25.2325 10.8726 25.2325C6.83418 25.2325 3.72239 21.9049 3.72239 17.6556V4.73433H0V17.6636C0 24.0576 4.57397 28.6959 10.8726 28.6959C17.1712 28.6959 21.6729 24.0576 21.6729 17.6636V8.87179H17.9531V17.8234Z" fill="black"/>
<path d="M37.629 8.31425C34.8011 8.31425 32.4712 9.4119 30.9903 11.4234V9.0256H27.2278V36.9994H30.9903V25.6394C32.4605 27.5842 34.8546 28.6872 37.6638 28.6872C43.2447 28.6872 47.4518 24.2993 47.4518 18.4834C47.4518 12.6675 43.2153 8.31425 37.629 8.31425ZM43.6866 18.4834C43.6866 22.3305 40.9417 25.2317 37.3023 25.2317C33.663 25.2317 30.8752 22.3305 30.8752 18.4834C30.8752 14.6363 33.6362 11.7697 37.3023 11.7697C40.9685 11.7697 43.6732 14.5937 43.6732 18.4834H43.6866Z" fill="black"/>
<path d="M67.5928 11.4065C66.1413 9.43499 63.7445 8.31603 60.9165 8.31603C55.3169 8.31603 51.0938 12.6879 51.0938 18.4852C51.0938 24.2824 55.333 28.6889 60.954 28.6889C63.7873 28.6889 66.1225 27.562 67.5928 25.4919V27.959H71.3419V-0.0148239H67.5928V11.4065ZM67.6651 18.4852C67.6651 22.3322 64.9201 25.2335 61.2781 25.2335C57.636 25.2335 54.8509 22.3322 54.8509 18.4852C54.8509 14.6381 57.6119 11.7715 61.2781 11.7715C64.9442 11.7715 67.6651 14.6568 67.6651 18.4852Z" fill="black"/>
<path d="M109.815 8.31425C103.819 8.31425 99.6387 12.497 99.6387 18.4834C99.6387 24.4698 103.827 28.6872 109.815 28.6872C115.707 28.6872 119.991 24.3952 119.991 18.4834C119.991 12.5716 115.717 8.31425 109.815 8.31425ZM116.242 18.4834C116.242 22.3944 113.543 25.2317 109.815 25.2317C106.034 25.2317 103.388 22.4557 103.388 18.4834C103.388 14.5937 106.09 11.7697 109.815 11.7697C113.54 11.7697 116.237 14.5937 116.237 18.4834H116.242Z" fill="black"/>
<path d="M91.8294 19.4082C91.8294 22.9995 89.6522 25.2321 86.1494 25.2321C82.7243 25.2321 80.6783 23.0555 80.6783 19.4082V8.70893H76.897V19.8132C76.897 25.1202 80.6167 28.6875 86.1494 28.6875C91.6821 28.6875 95.5919 25.0376 95.5919 19.8132V8.70893H91.8427L91.8294 19.4082Z" fill="black"/>
</g>
<defs>
<clipPath id="clip0_506_2104">
<rect width="120" height="37" fill="white"/>
</clipPath>
</defs>
</svg>
