<svg width="96" height="36" viewBox="0 0 96 36" fill="none" xmlns="http://www.w3.org/2000/svg">
<path fill-rule="evenodd" clip-rule="evenodd" d="M17.9449 35.8667C23.1739 35.8667 27.8718 33.5923 31.1032 29.9789C29.6 28.6725 27.3347 28.5931 25.7344 29.8844L25.4287 30.1311C22.4986 32.4954 18.2292 32.1462 15.7222 29.3373C14.3549 27.8053 12.0132 27.6489 10.4543 28.9854L6.92947 32.0073C9.94846 34.4225 13.778 35.8667 17.9449 35.8667ZM23.6665 27.3216C26.4573 25.0696 30.38 25.1504 33.0641 27.3254C34.6685 24.6671 35.5916 21.5513 35.5916 18.22C35.5916 14.5183 34.4519 11.0828 32.5042 8.24534C31.2486 7.97794 29.8876 8.29025 28.8545 9.20574L28.5604 9.4663C25.7426 11.9633 21.4617 11.8116 18.8277 9.12137C17.3911 7.65413 15.0447 7.60595 13.5491 9.01299L9.44723 12.872L7.19074 10.4735L11.2926 6.61449C14.0942 3.97875 18.4897 4.069 21.1807 6.81752C22.5868 8.25364 24.8721 8.33463 26.3764 7.00166L26.6704 6.7411C27.5835 5.93195 28.6399 5.38646 29.746 5.09957C26.6197 2.2857 22.4823 0.573242 17.9449 0.573242C8.98673 0.573242 1.58759 7.2482 0.449851 15.8958C3.1708 14.5901 6.5271 15.0925 8.74562 17.3644C10.1462 18.7986 12.4014 18.95 13.9811 17.7159L16.2745 15.9241C19.1568 13.6723 23.2313 13.7813 25.9891 16.184L30.4542 20.0742L28.291 22.5571L23.8259 18.667C22.2577 17.3007 19.9409 17.2387 18.3019 18.5192L16.0085 20.3109C13.1061 22.5784 8.96278 22.3002 6.38955 19.6651C4.89323 18.1328 2.44598 18.0794 0.884177 19.5449L0.387878 20.0106C0.759294 23.6963 2.26489 27.0473 4.55036 29.7093L8.3109 26.4853C11.2312 23.9817 15.6178 24.2747 18.1791 27.1445C19.5174 28.644 21.7966 28.8304 23.3607 27.5683L23.6665 27.3216Z" fill="black"/>
<path d="M48.3025 23.8796C48.3025 27.5721 51.2009 29.994 55.7668 29.994C60.3725 29.994 63.5489 27.6515 63.5489 23.959C63.5489 21.0606 61.921 19.5518 58.6255 18.7577L55.211 17.924C53.3052 17.4475 52.3523 16.574 52.3523 15.2638C52.3523 13.4771 53.6625 12.4448 56.0051 12.4448C58.2682 12.4448 59.5784 13.6756 59.6579 15.6211H63.2312C63.1518 11.9286 60.3725 9.54638 56.1242 9.54638C51.8361 9.54638 48.8186 11.8095 48.8186 15.3829C48.8186 18.2416 50.4465 19.9489 53.9007 20.7827L57.3153 21.5767C59.3402 22.0929 59.9755 22.887 59.9755 24.1972C59.9755 25.9839 58.4667 27.0559 55.8463 27.0559C53.3846 27.0559 51.8758 25.8648 51.8758 23.8796H48.3025Z" fill="black"/>
<path d="M76.8594 29.994C81.6636 29.994 84.9193 27.6515 85.8722 23.4825H82.3782C81.743 25.706 79.8372 26.8971 76.9388 26.8971C73.2463 26.8971 71.1023 24.634 70.8243 20.5444L85.8325 20.5047V19.1151C85.8325 13.358 82.2194 9.54638 76.7006 9.54638C71.0626 9.54638 67.2113 13.755 67.2113 19.8298C67.2113 25.8648 71.142 29.994 76.8594 29.994ZM76.7006 12.683C79.996 12.683 82.1003 14.827 82.1003 18.0431H70.9037C71.3802 14.6285 73.4448 12.683 76.7006 12.683Z" fill="black"/>
<path d="M92.6216 5.49656C93.9715 5.49656 95.0833 4.38484 95.0833 3.0349C95.0833 1.64525 93.9715 0.573242 92.6216 0.573242C91.2717 0.573242 90.16 1.64525 90.16 3.0349C90.16 4.38484 91.2717 5.49656 92.6216 5.49656ZM90.7952 29.5176H94.5274V10.1022H90.7952V29.5176Z" fill="black"/>
</svg>
