<svg width="144" height="31" viewBox="0 0 144 31" fill="none" xmlns="http://www.w3.org/2000/svg">
<path d="M45.954 19.7258C47.0289 20.8026 48.3272 21.341 49.8486 21.341C51.3701 21.341 52.6604 20.8026 53.7187 19.7258C54.7937 18.6326 55.3311 17.3192 55.3311 15.7855C55.3311 14.2518 54.7937 12.9466 53.7187 11.8697C52.6604 10.7766 51.3701 10.23 49.8486 10.23C48.3272 10.23 47.0289 10.7766 45.954 11.8697C44.8957 12.9466 44.3666 14.2518 44.3666 15.7855C44.3666 17.3192 44.8957 18.6326 45.954 19.7258ZM56.2738 22.1487C54.5045 23.8945 52.3625 24.7674 49.8486 24.7674C47.3348 24.7674 45.1849 23.8945 43.3989 22.1487C41.6293 20.3866 40.7445 18.2655 40.7445 15.7855C40.7445 13.3055 41.6293 11.1926 43.3989 9.44682C45.1849 7.68473 47.3348 6.80368 49.8486 6.80368C52.3625 6.80368 54.5045 7.68473 56.2738 9.44682C58.0599 11.1926 58.9533 13.3055 58.9533 15.7855C58.9533 18.2655 58.0599 20.3866 56.2738 22.1487Z" fill="black"/>
<path d="M61.3536 24.4738V6.608H64.7525V24.4738H61.3536Z" fill="black"/>
<path d="M72.9018 29.2217H69.2053L71.6365 23.7885L66.4269 12.237H70.148L73.4722 20.1664L76.7714 12.237H80.5175L72.9018 29.2217Z" fill="black"/>
<path d="M97.7927 24.4738V18.0127C97.7927 16.0385 97.0816 15.0514 95.6595 15.0514C94.5841 15.0514 93.7904 15.5327 93.2779 16.4954C93.3439 16.7727 93.3768 17.0827 93.3768 17.4254V24.4738H89.9783V18.0127C89.9783 16.0385 89.2672 15.0514 87.8451 15.0514C87.3652 15.0514 86.9187 15.1738 86.5051 15.4185C86.092 15.6469 85.7778 15.9569 85.5624 16.3485V24.4738H82.1639V12.237H85.5624V13.1914C86.2902 12.3757 87.2993 11.9677 88.5891 11.9677C89.995 11.9677 91.161 12.5062 92.0869 13.583C93.0296 12.5062 94.3775 11.9677 96.1306 11.9677C97.801 11.9677 99.058 12.4735 99.9013 13.4851C100.761 14.4967 101.191 15.8101 101.191 17.4254V24.4738H97.7927Z" fill="black"/>
<path d="M104.307 29.2217V12.237H107.705V13.118C108.516 12.3512 109.575 11.9677 110.881 11.9677C112.667 11.9677 114.131 12.5959 115.272 13.8522C116.43 15.0922 117.008 16.5932 117.008 18.3554C117.008 20.1175 116.43 21.6267 115.272 22.883C114.131 24.123 112.667 24.743 110.881 24.743C109.558 24.743 108.499 24.3514 107.705 23.5682V29.2217H104.307ZM110.385 21.6838C111.311 21.6838 112.063 21.3657 112.642 20.7293C113.221 20.0767 113.511 19.2854 113.511 18.3554C113.511 17.4254 113.221 16.6422 112.642 16.0059C112.063 15.3532 111.311 15.027 110.385 15.027C109.26 15.027 108.367 15.4675 107.705 16.3485V20.3377C108.367 21.2351 109.26 21.6838 110.385 21.6838Z" fill="black"/>
<path d="M130.832 12.237V24.4738H127.434V23.4948C126.623 24.3269 125.606 24.743 124.383 24.743C122.811 24.743 121.579 24.2535 120.686 23.2746C119.81 22.2793 119.371 20.9659 119.371 19.3343V12.237H122.77V18.7714C122.77 20.713 123.547 21.6838 125.102 21.6838C126.045 21.6838 126.822 21.2188 127.434 20.2888V12.237H130.832Z" fill="black"/>
<path d="M138.271 24.743C135.923 24.743 134.219 23.9598 133.161 22.3935L135.493 20.4357C136.088 21.3819 137.014 21.8551 138.271 21.8551C138.652 21.8551 138.974 21.7817 139.239 21.6348C139.504 21.488 139.636 21.2677 139.636 20.9741C139.636 20.713 139.52 20.5009 139.288 20.3377C139.073 20.1582 138.635 19.9788 137.974 19.7993L137.056 19.5791C135.914 19.2854 135.046 18.7959 134.451 18.1107C133.872 17.4254 133.599 16.6096 133.632 15.6632C133.666 14.5538 134.112 13.6646 134.972 12.9957C135.848 12.3104 136.956 11.9677 138.296 11.9677C140.198 11.9677 141.628 12.653 142.588 14.0235L140.355 15.8101C139.776 15.0922 139.073 14.7332 138.247 14.7332C137.916 14.7332 137.626 14.8067 137.378 14.9535C137.13 15.1004 137.006 15.3043 137.006 15.5654C137.006 16.0548 137.411 16.4057 138.222 16.6177L139.388 16.9604C141.786 17.5967 142.985 18.8612 142.985 20.7538C142.985 21.9122 142.538 22.8667 141.645 23.6172C140.752 24.3677 139.628 24.743 138.271 24.743Z" fill="black"/>
<path fill-rule="evenodd" clip-rule="evenodd" d="M16.9956 27.0873C16.9957 27.0873 16.9957 27.0873 16.9957 27.0873V28.3982H27.3397V24.7198H22.2316C25.3049 22.4226 27.2795 18.8516 27.2795 14.8413C27.2795 7.91106 21.3829 2.29297 14.109 2.29297C6.83511 2.29297 0.938506 7.91106 0.938506 14.8413C0.938506 18.8516 2.91306 22.4226 5.98644 24.7198H0.878372V28.3982H11.2223V28.3389H11.2223V23.4542C7.45333 22.2838 4.72724 18.8834 4.72724 14.8709C4.72724 9.89036 8.92756 5.85278 14.1089 5.85278C19.2903 5.85278 23.4907 9.89036 23.4907 14.8709C23.4907 18.8834 20.7646 22.2838 16.9956 23.4542V27.0873Z" fill="black"/>
</svg>
