<svg width="53" height="14" viewBox="0 0 53 14" fill="none" xmlns="http://www.w3.org/2000/svg">
<g clip-path="url(#clip0_923_7)">
<path d="M5.01 1.27H6.15C6.84426 1.16772 7.55326 1.25765 8.2 1.53C9.01138 2.01816 9.5999 2.80404 9.84 3.72C10.01 4.2 10.01 4.2 10.42 4.03H10.74V0.23H0.0100032V0.9H0.450003C0.641208 0.898676 0.830281 0.940206 1.00333 1.02154C1.17638 1.10287 1.32901 1.22194 1.45 1.37C1.86 2.03 1.93 2.77 1.93 6.62C1.93 10.71 1.84 11.71 1.45 12.22C1.35372 12.3511 1.22907 12.4588 1.08535 12.535C0.941629 12.6112 0.782555 12.6539 0.620003 12.66C0.0100032 12.77 0.0100032 12.76 0.0100032 13.03C-0.0237303 13.1203 -0.0237303 13.2197 0.0100032 13.31H6.78C6.82481 13.2217 6.84815 13.124 6.84815 13.025C6.84815 12.926 6.82481 12.8283 6.78 12.74C6.61603 12.6944 6.44891 12.661 6.28 12.64C6.09728 12.6183 5.91667 12.5815 5.74 12.53C5.48702 12.3453 5.28661 12.0978 5.15858 11.8119C5.03055 11.5261 4.97934 11.2117 5.01 10.9C4.91 10.24 4.86 9.03 4.86 8.03V7.24H5.26C5.75836 7.22475 6.25642 7.2786 6.74 7.4C6.97167 7.54316 7.16887 7.7357 7.31754 7.96388C7.4662 8.19206 7.56265 8.45024 7.6 8.72L7.69 9.03H8.3V4.6H7.74L7.65 5.03C7.61214 5.30587 7.51008 5.569 7.35203 5.79826C7.19399 6.02751 6.98436 6.21649 6.74 6.35C6.50336 6.42043 6.25404 6.4375 6.01 6.4H4.86V5.32C4.86 4.2 4.92 1.84 4.96 1.47L5.01 1.27ZM51.81 9.2C51.3373 8.43921 50.6001 7.88003 49.74 7.63C49.0807 7.4239 48.4712 7.08341 47.95 6.63C47.8327 6.51657 47.745 6.37616 47.6944 6.22103C47.6439 6.06589 47.6321 5.90075 47.66 5.74C47.6608 5.42469 47.7867 5.12257 48.01 4.9C48.1614 4.74146 48.353 4.62701 48.5643 4.56889C48.7757 4.51077 48.9988 4.51115 49.21 4.57C49.6472 4.69459 50.0425 4.93511 50.3541 5.26608C50.6657 5.59704 50.882 6.00613 50.98 6.45C51.14 6.9 51.16 6.9 51.45 6.78L51.63 6.71V4.22L51.5 4.16C50.5155 3.81423 49.4712 3.67136 48.43 3.74C47.5334 3.76272 46.6775 4.11933 46.03 4.74C45.7364 5.01489 45.5063 5.35064 45.356 5.72376C45.2058 6.09687 45.1389 6.49832 45.16 6.9C45.1656 7.51412 45.4094 8.10209 45.84 8.54C46.3159 9.008 46.8998 9.35147 47.54 9.54C49.09 10.15 49.54 10.54 49.54 11.25C49.5466 11.5494 49.4513 11.8422 49.2696 12.0802C49.0878 12.3183 48.8306 12.4875 48.54 12.56C48.1908 12.6367 47.8292 12.6367 47.48 12.56C47.0228 12.3826 46.6147 12.0985 46.2894 11.7315C45.9641 11.3645 45.7312 10.9252 45.61 10.45L45.48 10.13H45.3C45.214 10.1364 45.1296 10.1567 45.05 10.19H44.95V13.03H45.12C45.7956 13.2547 46.4926 13.4089 47.2 13.49H48.2C48.6337 13.5218 49.0696 13.4813 49.49 13.37C50.0237 13.2715 50.5223 13.0351 50.9363 12.6842C51.3503 12.3334 51.6653 11.8803 51.85 11.37C51.9693 11.085 52.0305 10.779 52.03 10.47C52.0694 10.0347 51.9935 9.59669 51.81 9.2V9.2ZM42.39 4.03C41.7908 3.77841 41.1451 3.65637 40.4954 3.67188C39.8457 3.68739 39.2066 3.8401 38.62 4.12C38.0687 4.38968 37.58 4.77198 37.1856 5.24221C36.7911 5.71244 36.4997 6.26016 36.33 6.85C36.1137 7.49345 36.0221 8.17223 36.06 8.85C36.0528 9.21876 36.083 9.58731 36.15 9.95C36.3115 10.8418 36.742 11.6628 37.3838 12.3028C38.0255 12.9428 38.8478 13.371 39.74 13.53C40.321 13.6032 40.909 13.6032 41.49 13.53C42.0929 13.4237 42.67 13.2031 43.19 12.88C43.6202 12.6389 43.9842 12.2954 44.25 11.88C44.2329 11.8148 44.2029 11.7538 44.1617 11.7005C44.1204 11.6472 44.0688 11.6028 44.01 11.57C43.8959 11.6113 43.7881 11.6686 43.69 11.74C43.1926 12.0678 42.6053 12.2321 42.01 12.21C41.6149 12.2367 41.2188 12.1752 40.8504 12.0299C40.482 11.8846 40.1505 11.6592 39.88 11.37C39.6707 11.1756 39.498 10.9453 39.37 10.69C39.0593 10.0683 38.8918 9.38491 38.88 8.69V8.3H44.42V8.1C44.4322 7.90019 44.4322 7.69981 44.42 7.5C44.418 6.7939 44.2292 6.10091 43.8726 5.49145C43.5161 4.88198 43.0045 4.37775 42.39 4.03V4.03ZM39.6 7.49H38.9V6.9C39.13 5.39 39.7 4.49 40.4 4.49C41.1 4.49 41.4 5.38 41.53 7.01V7.47H40.93L39.6 7.49ZM25.22 3.7C24.8745 3.6866 24.531 3.75873 24.22 3.91C23.5441 4.23823 22.9982 4.78413 22.67 5.46L22.54 5.7V3.7H22.49C22.37 3.7 18.67 4.44 18.55 4.49C18.43 4.54 18.47 4.55 18.47 4.73C18.47 4.91 18.47 4.94 18.55 4.95L18.94 5.03C19.0492 5.03268 19.1564 5.06018 19.2534 5.11043C19.3505 5.16067 19.4348 5.23234 19.5 5.32C19.75 5.65 19.8 6.23 19.8 8.7C19.8494 9.81196 19.8026 10.9261 19.66 12.03C19.6264 12.1965 19.542 12.3484 19.4184 12.4648C19.2949 12.5812 19.1382 12.6564 18.97 12.68L18.63 12.75H18.5V13.03C18.4637 13.1233 18.4637 13.2267 18.5 13.32H24.09V13.03C24.1094 12.9343 24.1094 12.8357 24.09 12.74C23.7534 12.7269 23.4187 12.6834 23.09 12.61C22.911 12.5164 22.7645 12.3707 22.6699 12.1922C22.5753 12.0137 22.537 11.8107 22.56 11.61C22.48 11.03 22.44 9.33 22.46 8.03C22.48 6.73 22.46 6.65 22.57 6.56C22.9046 6.30343 23.3187 6.17249 23.74 6.19C24.1371 6.19866 24.527 6.29785 24.88 6.48C25.0024 6.54795 25.1336 6.59844 25.27 6.63C25.27 6.63 26.27 4.21 26.27 4.1C26.142 3.9513 25.979 3.83684 25.7957 3.767C25.6123 3.69716 25.4145 3.67413 25.22 3.7V3.7ZM18.48 7.9C18.4451 7.1854 18.2399 6.4895 17.8816 5.87025C17.5233 5.251 17.0222 4.72635 16.42 4.34C15.7044 3.95395 14.9082 3.74109 14.0955 3.71851C13.2827 3.69593 12.4759 3.86427 11.74 4.21C10.6995 4.75868 9.91387 5.69138 9.55 6.81C9.17417 8.06241 9.17417 9.39759 9.55 10.65C9.74703 11.3345 10.1153 11.9574 10.62 12.46C11.2486 13.0734 12.0591 13.4663 12.93 13.58C13.489 13.6267 14.051 13.6267 14.61 13.58C14.8157 13.5487 15.0194 13.5053 15.22 13.45C16.034 13.2223 16.7663 12.7675 17.3312 12.1388C17.8961 11.5102 18.2703 10.7336 18.41 9.9C18.5098 9.23821 18.5333 8.56715 18.48 7.9V7.9ZM14.32 12.9C13.32 13.2 12.57 12.23 12.32 10.19C12.2282 9.12197 12.2282 8.04803 12.32 6.98C12.52 5.34 13.03 4.51 13.82 4.51C13.9794 4.50012 14.1388 4.52856 14.285 4.59293C14.4311 4.6573 14.5597 4.75574 14.66 4.88C15.33 5.55 15.66 6.88 15.66 8.88C15.7432 10.0119 15.5653 11.1478 15.14 12.2C14.9522 12.5069 14.6617 12.7372 14.32 12.85V12.9V12.9ZM32.32 3.9C32.0378 3.86369 31.7522 3.86369 31.47 3.9C30.9284 3.89954 30.3929 4.01549 29.9 4.24L29.59 4.37V2.2C29.6442 1.46767 29.6442 0.732333 29.59 0C29.47 0 25.65 0.73 25.59 0.76C25.5605 0.83383 25.5605 0.91617 25.59 0.99C25.59 1.2 25.59 1.19 26.04 1.29C26.1664 1.31833 26.2877 1.36553 26.4 1.43C26.5952 1.61356 26.7251 1.85584 26.77 2.12C26.8839 2.88102 26.9207 3.65158 26.88 4.42V13.2L27.15 13.26C27.55 13.35 28.68 13.54 29.05 13.58C29.7888 13.6388 30.5312 13.6388 31.27 13.58C32.0901 13.4962 32.8717 13.1903 33.5308 12.6951C34.1898 12.2 34.7013 11.5343 35.01 10.77C35.1941 10.2794 35.3215 9.76947 35.39 9.25C35.4495 8.54636 35.426 7.83815 35.32 7.14C35.2127 6.35742 34.8673 5.62677 34.3307 5.04717C33.794 4.46757 33.092 4.06707 32.32 3.9V3.9ZM29.7 12.73C29.7 12.6 29.6 8.22 29.62 6.47V5.1L29.91 5.03C30.1057 5.00197 30.3043 5.00197 30.5 5.03C30.7164 5.008 30.9341 5.05715 31.12 5.17C31.4935 5.42774 31.8036 5.76683 32.027 6.16176C32.2505 6.55668 32.3814 6.99715 32.41 7.45C32.4829 8.17818 32.4829 8.91182 32.41 9.64C32.3502 10.6984 31.9424 11.7073 31.25 12.51C31.0535 12.6967 30.8067 12.8218 30.54 12.87C30.3382 12.9051 30.1318 12.9051 29.93 12.87C29.74 12.87 29.74 12.81 29.74 12.73H29.7Z" fill="black"/>
</g>
<defs>
<clipPath id="clip0_923_7">
<rect width="52.04" height="13.63" fill="white"/>
</clipPath>
</defs>
</svg>
