<svg width="29" height="31" viewBox="0 0 29 31" fill="none" xmlns="http://www.w3.org/2000/svg">
<path d="M9.35448 31C7.98903 31 6.6611 30.5286 5.37068 29.5857C4.08025 28.6428 3.12962 27.3448 2.51877 25.6916C2.25052 24.7877 2.11656 23.9741 2.1169 23.2508C2.1169 21.7267 2.58002 20.4602 3.50625 19.4511C4.43249 18.4421 5.61468 17.9385 7.05283 17.9402C8.8316 17.9402 10.55 18.7281 12.2079 20.304C12.4758 20.5362 12.7865 20.8331 13.1401 21.1948C13.4937 21.5564 13.7679 21.8407 13.9627 22.0476C14.6931 22.8747 15.3513 23.5463 15.9372 24.0624C16.5106 24.5716 17.1512 24.9892 17.8385 25.3021C18.4839 25.6037 19.1808 25.7619 19.8862 25.767C20.2517 25.767 20.5196 25.7417 20.6904 25.6894C21.4948 25.509 22.275 25.0182 23.0309 24.2171C23.7868 23.416 24.4023 22.4216 24.8774 21.2338C25.3502 20.0578 25.5926 18.7922 25.59 17.5138C25.59 16.4812 25.4438 15.5514 25.1513 14.7243C24.7861 13.5879 24.2011 12.638 23.3964 11.8745C22.5917 11.111 21.641 10.73 20.5445 10.7314C19.1309 10.7314 17.5953 11.5839 15.9377 13.2888C15.8159 13.4186 15.426 13.8584 14.768 14.6081C14.3728 15.1226 13.9518 15.6141 13.5066 16.0805C13.1454 16.4549 12.7323 16.7685 12.2816 17.0104C11.3547 17.6046 10.1848 17.9017 8.77185 17.9017C8.52784 17.9017 8.13776 17.8758 7.6016 17.8241C6.52708 17.6941 5.48224 17.3662 4.51415 16.8552C3.54796 16.3552 2.68479 15.6573 1.97448 14.8018C1.34088 14.0534 0.844844 13.186 0.511922 12.2444C0.17312 11.3042 -0.000381482 10.3062 1.11179e-06 9.2997C-0.000682537 7.985 0.313931 6.69167 0.91429 5.54118C1.52348 4.35308 2.33999 3.42323 3.36383 2.7516C4.21703 2.15737 5.08235 1.86025 5.95978 1.86025C6.86112 1.86025 7.61671 2.17021 8.22657 2.79012C8.56749 3.12558 8.83575 3.53537 9.01287 3.99125C9.19546 4.45601 9.37207 5.05022 9.54271 5.77392C9.76249 6.65347 9.98193 7.33795 10.201 7.82733C10.4202 8.3177 10.778 8.72351 11.2249 8.98834C11.3677 9.08327 11.5315 9.13677 11.6999 9.14349C11.7915 9.14455 11.8822 9.12623 11.967 9.08961C12.0517 9.05299 12.1287 8.99881 12.1934 8.93023C12.2581 8.86166 12.3092 8.78008 12.3438 8.69028C12.3783 8.60048 12.3956 8.50427 12.3946 8.40729C12.3946 8.22681 12.3337 8.03331 12.2119 7.82679C12.1144 7.64068 11.9841 7.47621 11.8279 7.34235C11.645 7.17453 11.5049 7.03888 11.4076 6.93544C10.7005 6.18642 10.3471 5.23072 10.3474 4.0683C10.3459 3.48211 10.4578 2.90181 10.6761 2.3632C11.4317 0.787742 12.4677 0 13.784 0C14.3479 0.0068376 14.9035 0.145781 15.4109 0.406879C15.9542 0.674021 16.4444 1.04877 16.855 1.51091C17.3293 2.03261 17.7075 2.64364 17.97 3.31257C18.2182 3.93171 18.3487 4.59671 18.3539 5.2694C18.3539 5.96707 18.2138 6.59348 17.9336 7.14865C17.6541 7.70302 17.2111 8.14527 16.6722 8.40784C16.4526 8.53766 16.1603 8.60151 15.7943 8.60151C15.2097 8.60151 14.7344 8.39481 14.3686 7.98142C14.2243 7.80492 14.1126 7.60119 14.0394 7.38087C13.9625 7.1469 13.9014 6.9074 13.8567 6.66421C13.7345 6.09637 13.6127 5.65659 13.4912 5.34488C13.3649 5.00238 13.1717 4.69198 12.9245 4.434C12.6685 4.16275 12.3943 4.02712 12.1018 4.02712C11.8581 4.02737 11.6233 4.12413 11.4435 4.29838C11.2728 4.45354 11.1875 4.69894 11.1875 5.03458C11.1875 5.29317 11.2119 5.47399 11.2607 5.57708C11.3338 5.80998 11.4983 6.04904 11.7542 6.29425C12.0102 6.53947 12.2723 6.77836 12.5405 7.01092C12.589 7.06334 12.7596 7.21832 13.0525 7.47585C13.3267 7.71432 13.5722 7.98763 13.7835 8.28961C14.1732 8.80679 14.3683 9.42671 14.3686 10.1493C14.3679 10.5672 14.2934 10.9812 14.149 11.37C14.0124 11.7549 13.8006 12.1048 13.5275 12.3969C12.989 13.0214 12.2683 13.3337 11.3653 13.3337C10.4879 13.3337 9.72016 12.972 9.06217 12.2487C8.40418 11.5253 8.00198 10.4533 7.85557 9.03266L7.81922 7.79249C7.81922 7.56029 7.8247 7.26951 7.83715 6.92068C7.84959 6.57185 7.84312 6.15284 7.81922 5.66152C7.79432 4.70632 7.62368 4.00268 7.3073 3.55059C6.99092 3.0985 6.60084 2.87245 6.13706 2.87245C5.57634 2.87245 5.0523 3.1307 4.56495 3.64717C4.17454 4.0866 3.88206 4.63561 3.68751 5.29422C3.49056 5.96529 3.39181 6.66437 3.3947 7.36714C3.3947 8.16823 3.48003 8.85271 3.65067 9.42055C4.04041 10.7902 4.81444 11.9656 5.97273 12.9468C7.13102 13.9281 8.39256 14.4189 9.75734 14.4192C10.732 14.4192 11.6704 14.148 12.5724 13.6054C12.9137 13.3725 13.6816 12.7783 14.876 11.8228C16.7773 10.3251 18.5933 9.57605 20.3239 9.5757C21.2678 9.56822 22.2004 9.79371 23.0478 10.2343C23.9012 10.6836 24.6744 11.2866 25.333 12.0165C26.1374 12.8176 26.8442 13.8767 27.4534 15.1939C28.0647 16.5207 28.3777 17.9795 28.3677 19.4559C28.3684 20.7942 28.0938 22.1166 27.563 23.331C26.807 25.088 25.7224 26.4828 24.3092 27.5154C22.8959 28.548 21.4213 29.0647 19.8852 29.0654C18.69 29.0654 17.6297 28.7554 16.7041 28.1355C15.8506 27.5676 15.1742 26.9478 14.6749 26.2758C14.1756 25.6038 13.6089 24.7255 12.9748 23.6408C12.34 22.5287 11.7549 21.6437 11.2194 20.9858C10.6839 20.3279 9.96484 19.753 9.06217 19.2611C8.67176 19.055 8.22076 18.9517 7.70917 18.9514C7.19758 18.951 6.75886 19.0801 6.39302 19.3387C6.02783 19.5973 5.84524 19.9462 5.84524 20.3852C5.85299 20.5426 5.87756 20.6986 5.91845 20.8502C6.06419 21.3153 6.3384 21.6122 6.7411 21.741C7.14523 21.8703 7.56399 21.9414 7.98604 21.9521C8.41231 21.9654 8.72305 21.9719 8.91825 21.9716C9.86627 22.0141 10.7843 22.3361 11.569 22.9014C12.3386 23.4397 12.9225 24.2283 13.2327 25.1485C13.4276 25.5879 13.525 26.1176 13.525 26.7375C13.5253 27.4588 13.3624 28.1696 13.05 28.8105C12.7329 29.4691 12.3063 29.9792 11.7702 30.3409C11.1102 30.7803 10.305 31 9.35448 31Z" fill="black"/>
</svg>
