<svg width="268" height="32" viewBox="0 0 268 32" fill="none" xmlns="http://www.w3.org/2000/svg">
<path fill-rule="evenodd" clip-rule="evenodd" d="M27.0553 10.0412H26.0796C25.7537 4.8338 22.3608 1.06862 16.9686 1.06862C7.9031 1.06862 5.95155 9.43685 5.95155 16.7815C5.95155 23.7539 8.64677 30.587 16.5499 30.587C21.198 30.587 24.3123 28.402 24.3123 23.6146C24.3123 20.5003 23.1509 19.8959 20.315 19.6629V18.5943H32.494V19.6629C29.984 19.6165 29.6126 20.8717 29.6126 23.1959V28.1235C26.2188 28.1235 25.9403 28.4949 23.058 30.0755C20.6873 31.2843 18.4099 31.8427 15.7598 31.8427C6.69522 31.8427 0.140625 25.8925 0.140625 16.6878C0.140625 7.20541 6.69522 0 16.4106 0C19.8499 0 23.2901 0.836507 26.0796 2.92868L27.0553 0.836507H27.5669L27.0553 10.0412Z" fill="black"/>
<path fill-rule="evenodd" clip-rule="evenodd" d="M56.6118 9.39104C56.6118 7.90372 56.6118 4.46304 56.1467 3.20783C55.5423 1.62721 53.6367 1.62721 52.1494 1.62721V0.558594C54.3804 0.605016 56.5654 0.697861 58.7968 0.744284C61.1671 0.697861 63.4914 0.605016 65.8621 0.558594V1.62721C64.3743 1.62721 62.4683 1.62721 61.8648 3.20783C61.3992 4.46304 61.3992 7.90372 61.3992 9.39104V23.1501C61.3992 29.1003 62.329 30.0761 68.2323 30.0761C70.4174 30.0761 72.9282 30.1699 74.8334 28.9147C77.1576 27.4733 77.4371 25.7074 77.8549 23.1037H79.0177L78.599 31.3318C77.8085 31.2854 76.9719 31.2389 76.1819 31.1461C68.1859 31.2854 60.144 31.2854 52.1494 31.3318V30.2627C53.6367 30.2627 55.5423 30.2627 56.1467 28.6825C56.6118 27.4269 56.6118 23.9867 56.6118 22.4993V9.39104Z" fill="black"/>
<path fill-rule="evenodd" clip-rule="evenodd" d="M106.344 16.0379C106.344 23.3352 109.226 30.587 117.686 30.587C125.961 30.587 128.471 22.8246 128.471 15.8977C128.471 8.92529 125.589 1.25521 117.408 1.25521C109.366 1.25521 106.344 9.15741 106.344 16.0379ZM100.533 16.0379C100.533 6.7867 108.622 0 117.593 0C126.472 0 134.281 6.50817 134.281 15.712C134.281 25.2417 126.797 31.8427 117.408 31.8427C108.342 31.8427 100.533 25.381 100.533 16.0379Z" fill="black"/>
<path fill-rule="evenodd" clip-rule="evenodd" d="M157.145 21.9416H158.213C159.144 26.6362 161.652 30.587 166.998 30.587C170.625 30.587 173.646 28.5417 173.646 24.7766C173.646 20.5472 169.973 18.8728 166.581 17.5256C162.35 15.8977 157.842 13.6663 157.842 8.36732C157.842 3.06794 161.978 0 167.046 0C169.602 0 171.972 0.88293 174.064 2.3707L175.133 0.557972H175.645L175.878 8.60034H174.809C173.739 4.74096 171.554 1.25566 167.046 1.25566C164.071 1.25566 161.607 3.16079 161.607 6.18231C161.607 9.85465 164.906 11.1103 167.788 12.3191C172.624 14.3171 178.015 16.7342 178.015 22.8246C178.015 28.914 172.344 31.8427 166.905 31.8427C163.745 31.8427 161.281 30.9133 158.77 29.0533L157.656 31.0062H157.145V21.9416Z" fill="black"/>
<path fill-rule="evenodd" clip-rule="evenodd" d="M199.902 21.9416H200.971C201.902 26.6362 204.413 30.587 209.758 30.587C213.383 30.587 216.405 28.5417 216.405 24.7766C216.405 20.5472 212.733 18.8728 209.339 17.5256C205.11 15.8977 200.6 13.6663 200.6 8.36732C200.6 3.06794 204.736 0 209.803 0C212.362 0 214.732 0.88293 216.824 2.3707L217.893 0.557972H218.405L218.636 8.60034H217.567C216.498 4.74096 214.314 1.25566 209.803 1.25566C206.828 1.25566 204.365 3.16079 204.365 6.18231C204.365 9.85465 207.666 11.1103 210.548 12.3191C215.382 14.3171 220.775 16.7342 220.775 22.8246C220.775 28.914 215.104 31.8427 209.665 31.8427C206.504 31.8427 204.039 30.9133 201.53 29.0533L200.414 31.0062H199.902V21.9416Z" fill="black"/>
<path fill-rule="evenodd" clip-rule="evenodd" d="M254.887 25.2423C254.887 29.6583 255.028 29.8904 259.491 30.2632V31.3318C257.165 31.2854 254.842 31.1925 252.517 31.1461C250.147 31.1925 247.776 31.2854 245.405 31.3318V30.2632C249.915 29.8904 250.101 29.6119 250.101 25.2423V19.4778L245.824 12.0867C245.312 11.1574 241.78 4.09211 240.153 2.46417C239.362 1.58124 238.572 1.81335 237.456 1.62766V0.558594C239.548 0.605016 241.687 0.697861 243.778 0.744284C245.962 0.697861 248.147 0.605016 250.332 0.558594V1.62766C249.311 1.62766 246.845 1.53482 246.845 3.11499C246.845 4.32423 247.497 5.34642 248.054 6.36952L254.097 17.5727L257.073 12.8304C258.05 11.2038 261.675 5.25358 261.675 3.58011C261.675 1.81335 259.583 1.76693 258.329 1.62766V0.558594C260.002 0.605016 261.628 0.697861 263.303 0.744284C264.836 0.697861 266.324 0.605016 267.858 0.558594V1.62766C265.162 1.85978 264.186 3.67296 262.93 5.76513L254.887 19.06V25.2423Z" fill="black"/>
</svg>
