<?xml version="1.0" encoding="UTF-8"?>
<svg width="220px" height="29px" viewBox="0 0 220 29" version="1.1" xmlns="http://www.w3.org/2000/svg" xmlns:xlink="http://www.w3.org/1999/xlink">
    <!-- Generator: Sketch 54.1 (76490) - https://sketchapp.com -->
    <title>logo glyph + wordmark</title>
    <desc>Created with Sketch.</desc>
    <defs>
        <polygon id="path-1" points="0 28.4903226 219.344515 28.4903226 219.344515 0.270658065 0 0.270658065"></polygon>
    </defs>
    <g id="Symbols" stroke="none" stroke-width="1" fill="none" fill-rule="evenodd">
        <g id="nav_white-bkgd" transform="translate(-150.000000, -25.000000)">
            <g id="logo-glyph-+-wordmark">
                <g transform="translate(150.000000, 25.000000)">
                    <g id="logo-(gylph-+-wordmark)-black">
                        <g>
                            <g id="mr-gylph-black-" fill="#000000">
                                <polygon points="14.5194892 0.311765591 0.311672043 7.41583011 0.311672043 25.1756796 7.41573656 28.7274 7.41573656 18.0716151 14.5194892 21.6233355 21.6235538 18.0716151 21.6235538 28.7274 28.7273065 25.1756796 28.7273065 7.41583011"></polygon>
                            </g>
                            <g id="mr-wordmark-black">
                                <g transform="translate(0.309958, 0.038926)">
                                    <path d="M52.0881502,13.0573006 C51.7310787,14.3951071 50.8979118,17.9034426 50.8979118,17.9034426 L50.8387098,17.9034426 C50.8387098,17.9034426 50.004923,14.3951071 49.6180955,13.0573006 L47.0296369,3.75149419 L39.9467884,3.75149419 L39.9467884,25.0096103 L44.6782961,25.0096103 L44.6782961,14.3359587 C44.6782961,13.4738168 44.5893381,10.0546684 44.5893381,10.0546684 L44.6485401,10.0546684 C44.6485401,10.0546684 45.3924391,13.2657135 45.6304868,14.0386684 L48.6659048,25.0096103 L53.010895,25.0096103 L56.0757589,14.0086297 C56.3138066,13.2356748 57.0577056,10.0546684 57.0577056,10.0546684 L57.1178374,10.0546684 C57.1178374,10.0546684 57.0282596,13.4437781 57.0282596,14.3062297 L57.0282596,25.0096103 L61.8487252,25.0096103 L61.8487252,3.75149419 L54.7069847,3.75149419 L52.0881502,13.0573006 Z" id="Fill-2" fill="#000000"></path>
                                    <path d="M71.9054961,22.0364284 C69.7928229,22.0364284 68.6915424,20.1929187 68.6915424,17.427809 C68.6915424,14.6626994 69.7928229,12.79008 71.9054961,12.79008 C74.0181693,12.79008 75.1492058,14.6626994 75.1492058,17.427809 C75.1492058,20.1929187 74.0181693,22.0364284 71.9054961,22.0364284 M71.935252,9.37093161 C67.0546546,9.37093161 63.7811889,12.8492284 63.7811889,17.427809 C63.7811889,22.0063897 67.0546546,25.4853058 71.935252,25.4853058 C76.8456055,25.4853058 80.0595592,22.0063897 80.0595592,17.427809 C80.0595592,12.8492284 76.8456055,9.37093161 71.935252,9.37093161" id="Fill-4" fill="#000000"></path>
                                    <path d="M88.9253167,21.649951 C87.0503812,21.649951 85.9202746,19.9848155 85.9202746,17.3386219 C85.9202746,14.7816155 87.0503812,12.9981832 88.9851386,12.9981832 C91.0981217,12.9981832 92.1392704,14.8413832 92.1392704,17.3983897 C92.1392704,19.8956284 90.949032,21.649951 88.9253167,21.649951 L88.9253167,21.649951 Z M92.0205565,11.5114219 L91.9309787,11.5114219 C91.0379899,10.2330735 89.8183055,9.3408929 87.6758763,9.3408929 C83.7474696,9.3408929 81.0099212,12.6411252 81.0099212,17.3983897 C81.0099212,22.4823639 83.7772255,25.4853058 87.6758763,25.4853058 C89.6692157,25.4853058 91.2469015,24.5339768 92.1690264,22.9580284 L92.2288482,22.9580284 L92.2288482,25.0096413 L96.8710881,25.0096413 L96.8710881,3.75152516 L92.0205565,3.75152516 L92.0205565,11.5114219 Z" id="Fill-6" fill="#000000"></path>
                                    <path d="M103.297198,15.7630452 C103.624823,13.9495742 104.577014,12.7898323 106.422194,12.7898323 C107.999259,12.7898323 109.129986,13.9495742 109.308832,15.7630452 L103.297198,15.7630452 Z M111.540839,11.2436129 C110.231266,10.0544516 108.505421,9.34095484 106.332616,9.34095484 C101.690376,9.34095484 98.5061781,12.8195613 98.5061781,17.3687226 C98.5061781,21.9767226 101.601418,25.4556387 106.630485,25.4556387 C108.564623,25.4556387 110.111933,24.9499355 111.391749,24.0580645 C112.731077,23.1364645 113.623756,21.8283871 113.950762,20.4605419 L109.219564,20.4605419 C108.80267,21.411871 107.969504,21.9767226 106.689687,21.9767226 C104.696348,21.9767226 103.565311,20.6986839 103.267442,18.647071 L114.218875,18.647071 C114.248631,15.5549419 113.355642,12.9087484 111.540839,11.2436129 L111.540839,11.2436129 Z" id="Fill-8" fill="#000000"></path>
                                    <path d="M120.585845,12.1654606 L120.496267,12.1654606 L120.496267,9.78682839 L115.854027,9.78682839 L115.854027,25.0096413 L120.704559,25.0096413 L120.704559,18.1713445 C120.704559,14.8708026 122.60894,13.41408 125.585156,13.8302865 L125.70449,13.8302865 L125.70449,9.66822194 C125.495578,9.57872516 125.198329,9.54930581 124.751989,9.54930581 C122.90681,9.54930581 121.65675,10.3519897 120.585845,12.1654606" id="Fill-10" fill="#000000"></path>
                                    <path d="M136.713948,9.34086194 C134.600654,9.34086194 133.142922,10.2330426 132.011886,11.8681394 L131.922308,11.8681394 L131.922308,9.78679742 L127.250622,9.78679742 L127.250622,25.0096103 L132.100844,25.0096103 L132.100844,16.5956748 C132.100844,14.7224361 133.172368,13.3846297 134.77919,13.3846297 C136.356876,13.3846297 137.159977,14.4842942 137.159977,16.0899716 L137.159977,25.0096103 L142.010509,25.0096103 L142.010509,15.1089135 C142.010509,11.7194942 140.046615,9.34086194 136.713948,9.34086194" id="Fill-12" fill="#000000"></path>
                                    <path d="M153.733799,13.1465187 L149.775636,13.1465187 L149.775636,7.91389935 L153.852513,7.91389935 C155.876228,7.91389935 156.887931,9.01387355 156.887931,10.5597832 C156.887931,12.1654606 155.817026,13.1465187 153.733799,13.1465187 M161.530481,19.0037574 C161.232611,16.8929961 160.28042,15.7332542 158.435861,15.1089445 L158.435861,15.0197574 C160.905916,14.1576155 162.1256,12.3438348 162.1256,9.87601548 C162.1256,5.92174452 158.911646,3.75152516 154.68599,3.75152516 L144.508212,3.75152516 L144.508212,25.0096413 L149.775636,25.0096413 L149.775636,17.0413316 L152.960144,17.0413316 C155.221907,17.0413316 156.2333,18.1118865 156.501104,20.0740026 C156.828419,22.1850735 156.739461,24.6826219 157.304824,25.0096413 L162.42285,25.0096413 L162.42285,24.7417703 C161.679571,24.474209 161.97682,21.7982865 161.530481,19.0037574" id="Fill-14" fill="#000000"></path>
                                    <path d="M168.134723,15.7630452 C168.462349,13.9495742 169.41454,12.7898323 171.259719,12.7898323 C172.836785,12.7898323 173.967512,13.9495742 174.146357,15.7630452 L168.134723,15.7630452 Z M176.378364,11.2436129 C175.068792,10.0544516 173.342946,9.34095484 171.170141,9.34095484 C166.527901,9.34095484 163.343704,12.8195613 163.343704,17.3687226 C163.343704,21.9767226 166.438943,25.4556387 171.468011,25.4556387 C173.402148,25.4556387 174.949458,24.9499355 176.229274,24.0580645 C177.568603,23.1364645 178.461281,21.8283871 178.788287,20.4605419 L174.057089,20.4605419 C173.640196,21.411871 172.807029,21.9767226 171.527213,21.9767226 C169.533873,21.9767226 168.402837,20.6986839 168.104967,18.647071 L179.056401,18.647071 C179.086157,15.5549419 178.193168,12.9087484 176.378364,11.2436129 L176.378364,11.2436129 Z" id="Fill-16" fill="#000000"></path>
                                    <path d="M186.316297,4.97029161 L181.58448,4.97029161 L181.58448,9.78701419 L179.560764,9.78701419 L179.560764,12.8196852 L181.58448,12.8196852 L181.58448,20.9957884 C181.58448,24.2662916 183.608505,25.1878916 186.435631,25.1878916 C187.744273,25.1878916 188.667018,25.0689755 189.083602,24.9500594 L189.083602,21.4119948 C188.905686,21.4119948 188.42897,21.4414142 188.012697,21.4414142 C186.970618,21.4414142 186.316297,21.1444335 186.316297,19.9552723 L186.316297,12.8196852 L189.083602,12.8196852 L189.083602,9.78701419 L186.316297,9.78701419 L186.316297,4.97029161 Z" id="Fill-18" fill="#000000"></path>
                                    <path d="M200.242025,19.5687019 C200.242025,21.2037987 198.992584,22.3040826 197.176851,22.3040826 C195.986612,22.3040826 195.093934,21.8284181 195.093934,20.6092181 C195.093934,19.4497858 195.867589,18.9741213 197.742524,18.5576052 C198.724471,18.3200826 199.61715,18.0819406 200.242025,17.755231 L200.242025,19.5687019 Z M204.884885,22.6311019 L204.884885,14.9600826 C204.884885,13.0574245 204.259389,11.5709729 202.949817,10.6196439 C201.849467,9.78692129 200.301227,9.37071484 198.010018,9.37071484 C193.397534,9.37071484 191.225349,11.7790761 191.106015,14.6036439 L195.570339,14.6036439 C195.718499,13.3249858 196.492154,12.6412181 198.040084,12.6412181 C199.498126,12.6412181 200.123311,13.2952568 200.123311,14.2763148 C200.123311,15.3171406 199.111298,15.6141213 196.254416,15.9711794 C193.100284,16.3873858 190.421938,17.3981729 190.421938,20.7578632 C190.421938,23.7608052 192.594123,25.3959019 195.629541,25.3959019 C197.92106,25.3959019 199.260078,24.5935277 200.153067,23.3148697 L200.212269,23.3148697 C200.331603,24.0878245 200.480073,24.6827148 200.71843,25.0094245 L205.419872,25.0094245 L205.419872,24.8013213 C205.003288,24.53376 204.884885,23.8499923 204.884885,22.6311019 L204.884885,22.6311019 Z" id="Fill-20" fill="#000000"></path>
                                    <mask id="mask-2" fill="white">
                                        <use xlink:href="#path-1"></use>
                                    </mask>
                                    <g id="Clip-23"></g>
                                    <polygon id="Fill-22" fill="#000000" mask="url(#mask-2)" points="207.233529 25.0095484 212.08375 25.0095484 212.08375 9.78704516 207.233529 9.78704516"></polygon>
                                    <polygon id="Fill-24" fill="#000000" mask="url(#mask-2)" points="207.233529 7.67597419 212.08375 7.67597419 212.08375 3.75143226 207.233529 3.75143226"></polygon>
                                    <polygon id="Fill-25" fill="#000000" mask="url(#mask-2)" points="214.434781 25.0095484 219.344515 25.0095484 219.344515 3.75143226 214.434781 3.75143226"></polygon>
                                </g>
                            </g>
                        </g>
                    </g>
                </g>
            </g>
        </g>
    </g>
</svg>
