<svg width="103" height="25" viewBox="0 0 103 25" fill="none" xmlns="http://www.w3.org/2000/svg">
<path fill-rule="evenodd" clip-rule="evenodd" d="M19.1938 8.62106C18.2329 6.33519 16.458 4.48838 14.2136 3.43911C11.9692 2.38985 9.41545 2.21302 7.04813 2.94297C4.68086 3.67291 2.66893 5.25755 1.40298 7.38919C0.137027 9.52088 -0.292616 12.0475 0.197463 14.4785C0.687541 16.9095 2.06237 19.0714 4.05504 20.5446C6.0477 22.0178 8.51604 22.697 10.9808 22.4504C13.4455 22.2039 15.7308 21.0492 17.393 19.2104C19.0552 17.3717 19.9757 14.9802 19.9758 12.5001C19.9776 11.1677 19.7116 9.8485 19.1938 8.62106ZM1.51201 13.9172L1.49339 13.7931C1.43722 13.4157 1.40589 13.035 1.39961 12.6535L1.3964 12.4571L1.59069 12.4831C4.23415 12.836 6.80924 13.5864 9.22899 14.7088L9.32662 14.7532V16.3625L9.08323 16.2426C6.7377 15.0862 4.22476 14.3073 1.63694 13.9346L1.51201 13.9172ZM2.63284 16.8388L2.55833 16.8233L2.52043 16.7571C2.29325 16.3574 2.09843 15.9403 1.93786 15.5095L1.83542 15.2355L2.12445 15.2851C4.60723 15.709 7.00756 16.5229 9.23673 17.6966L9.32662 17.7436V19.404L9.07486 19.2616C7.06568 18.1251 4.89245 17.3078 2.63284 16.8388ZM9.11307 21.0686C7.28073 20.8801 5.55774 20.1056 4.19942 18.8599L3.64608 18.3545L4.36193 18.5741C6.0657 19.096 7.6976 19.8291 9.21969 20.7564L9.85654 21.1448L9.11307 21.0686ZM10.1019 13.6658L10.0672 13.6825H9.93557L9.90086 13.6658L9.89637 13.6635C7.29846 12.4226 4.52159 11.5991 1.66778 11.2233L1.49371 11.2002L1.52358 11.0272C1.86995 9.02731 2.91042 7.21413 4.46152 5.90725C6.01263 4.60039 7.97476 3.88378 10.002 3.88378C12.0293 3.88378 13.9914 4.60039 15.5425 5.90725C17.0936 7.21413 18.1341 9.02731 18.4804 11.0272L18.5103 11.2002L18.3362 11.2233C15.483 11.5989 12.7067 12.4221 10.1093 13.6626L10.1019 13.6658ZM15.8033 18.8599C14.445 20.1056 12.7221 20.8801 10.8897 21.0686L10.1478 21.1448L10.7847 20.7564C12.3063 19.8291 13.9376 19.0959 15.6408 18.5738L16.3566 18.3542L15.8033 18.8599ZM18.0643 15.5091C17.9037 15.9399 17.7089 16.3571 17.4817 16.7568L17.4441 16.823L17.3696 16.8384C15.1099 17.3076 12.9365 18.1251 10.9272 19.2619L10.6755 19.4043V17.7436L10.7657 17.6959C12.9949 16.5223 15.3952 15.7084 17.878 15.2844L18.167 15.2349L18.0643 15.5091ZM18.6025 12.6535C18.596 13.0349 18.5645 13.4155 18.5081 13.7928L18.4894 13.9169L18.3655 13.9349C15.7775 14.3079 13.2645 15.0871 10.9189 16.2439L10.6755 16.3638V14.7532L10.7718 14.7079C13.1922 13.5856 15.768 12.8355 18.412 12.4831L18.6067 12.4571L18.6025 12.6535Z" fill="black"/>
<path d="M26.2182 18.333H33.492V16.3007H28.5031V6.47808H26.2182V18.333ZM39.3273 15.4539C39.1036 15.7705 38.8068 16.0281 38.4622 16.2051C38.1177 16.382 37.7354 16.4729 37.3482 16.47C37.0573 16.4732 36.7687 16.417 36.5001 16.305C36.2315 16.1928 35.9885 16.0272 35.7859 15.818C35.5834 15.6089 35.4254 15.3606 35.3218 15.0884C35.2182 14.8161 35.171 14.5256 35.1831 14.2346C35.1691 13.9464 35.2133 13.6584 35.3128 13.3877C35.4124 13.117 35.5654 12.8692 35.7627 12.659C35.96 12.4488 36.1976 12.2805 36.4613 12.1642C36.725 12.048 37.0094 11.986 37.2975 11.9821C37.6916 11.981 38.0805 12.0723 38.433 12.2487C38.7855 12.4251 39.0917 12.6819 39.3273 12.9983V15.4539ZM41.5262 10.1192H39.4118V10.7797C38.7317 10.2323 37.8825 9.93889 37.0099 9.94989C34.7772 9.94989 32.9841 11.8128 32.9841 14.2346C32.9788 15.2889 33.3508 16.3103 34.0329 17.1136C34.421 17.5516 34.8976 17.902 35.4314 18.1414C35.965 18.3808 36.5435 18.5038 37.1283 18.5023C37.9651 18.5139 38.7772 18.2187 39.4118 17.6725V18.333H41.5262V10.1196V10.1192ZM44.9106 18.333V12.9986C45.1476 12.692 45.4495 12.4418 45.7946 12.2661C46.1397 12.0903 46.5195 11.9933 46.9066 11.9821C47.362 11.9663 47.8052 12.1311 48.1399 12.4408C48.4444 12.7456 48.6305 13.169 48.6305 13.982V18.333H50.8294V14.1502C50.8294 12.7446 50.525 11.9148 49.9837 11.2712C49.6356 10.8561 49.2006 10.5226 48.7095 10.2943C48.2185 10.0661 47.6834 9.94858 47.142 9.95021C46.2964 9.94721 45.4765 10.2408 44.8246 10.7801V10.1196H42.7102V18.333H44.9095H44.9106ZM57.5123 15.4539C57.2885 15.7705 56.9917 16.0282 56.6471 16.2051C56.3024 16.3821 55.9201 16.473 55.5328 16.47C55.2419 16.4732 54.9533 16.417 54.6847 16.305C54.4161 16.1928 54.1731 16.0272 53.9706 15.818C53.768 15.6089 53.6101 15.3606 53.5064 15.0884C53.4028 14.8161 53.3556 14.5256 53.3677 14.2346C53.3537 13.9464 53.3979 13.6584 53.4974 13.3877C53.597 13.117 53.7501 12.8692 53.9474 12.659C54.1447 12.4488 54.3823 12.2805 54.646 12.1642C54.9097 12.048 55.194 11.986 55.4821 11.9821C55.8762 11.9809 56.2652 12.0722 56.6178 12.2486C56.9704 12.4251 57.2767 12.6818 57.5123 12.9983V15.4539ZM59.7112 18.333V6.30908H57.5108V10.712C56.8489 10.1983 56.0303 9.92914 55.1931 9.94989C52.9603 9.94989 51.1674 11.8128 51.1674 14.2346C51.162 15.2889 51.5341 16.3103 52.2161 17.1136C52.6041 17.5516 53.0809 17.902 53.6145 18.1414C54.1483 18.3808 54.7267 18.5038 55.3116 18.5023C56.1485 18.5139 56.9607 18.2188 57.5954 17.6725V18.333H59.7098H59.7112ZM60.8103 12.9983V14.8611H66.3913V12.9983H60.8093H60.8103ZM69.6904 12.9983C69.9264 12.6819 70.2323 12.4251 70.585 12.2487C70.9376 12.0723 71.3266 11.981 71.7204 11.9821C72.0082 11.9861 72.2929 12.048 72.5563 12.1643C72.8204 12.2806 73.0576 12.4489 73.2548 12.6591C73.4521 12.8693 73.6057 13.1171 73.7049 13.3878C73.8048 13.6585 73.8485 13.9465 73.8348 14.2346C73.8466 14.5256 73.7998 14.8161 73.6962 15.0884C73.5926 15.3606 73.4346 15.6089 73.2317 15.818C73.0289 16.0272 72.786 16.1928 72.5176 16.305C72.2492 16.417 71.9602 16.4732 71.6693 16.47C71.2822 16.4729 70.9002 16.382 70.5556 16.2051C70.211 16.0281 69.9139 15.7705 69.6904 15.4539V12.9983ZM69.6055 18.333V17.6728C70.2404 18.2191 71.0525 18.5142 71.889 18.5026C72.4739 18.5041 73.0526 18.381 73.5863 18.1416C74.12 17.9022 74.597 17.5519 74.9852 17.114C75.6669 16.3106 76.039 15.2893 76.034 14.2349C76.034 11.8131 74.2405 9.95021 72.0076 9.95021C71.1705 9.92952 70.3521 10.1987 69.6904 10.7123V6.30908H67.4912V18.333H69.6055ZM76.0333 14.2346C76.0159 15.1024 76.2574 15.9557 76.7269 16.6856C77.1957 17.4155 77.8717 17.989 78.6676 18.333C79.4636 18.6769 80.3437 18.7758 81.1965 18.6169C82.0485 18.458 82.8345 18.0486 83.4537 17.4408C84.0723 16.8331 84.4968 16.0546 84.6722 15.2045C84.8476 14.3545 84.7659 13.4713 84.4381 12.6677C84.1104 11.8641 83.5511 11.1765 82.8313 10.6925C82.1116 10.2084 81.2645 9.94989 80.3974 9.94989C79.8275 9.93558 79.2607 10.036 78.7301 10.2453C78.2001 10.4545 77.7169 10.7682 77.3099 11.1678C76.9029 11.5675 76.5802 12.0449 76.3604 12.5717C76.1413 13.0986 76.0302 13.6641 76.0333 14.2349V14.2346ZM78.2319 14.2346C78.2207 13.9429 78.2687 13.652 78.3724 13.3792C78.476 13.1064 78.6339 12.8575 78.8362 12.6471C79.0384 12.4368 79.2806 12.2695 79.5491 12.1552C79.8175 12.041 80.1059 11.9821 80.3974 11.9821C80.6889 11.9821 80.9773 12.041 81.2458 12.1552C81.5142 12.2695 81.7564 12.4368 81.9586 12.6471C82.1609 12.8575 82.3182 13.1064 82.4225 13.3792C82.5261 13.652 82.5735 13.9429 82.5623 14.2346C82.5698 14.5239 82.5192 14.8118 82.4137 15.0813C82.3082 15.3509 82.1503 15.5965 81.9487 15.8038C81.7464 16.0111 81.5054 16.1758 81.2389 16.2883C80.9723 16.4008 80.6864 16.4588 80.3974 16.4588C80.1084 16.4589 79.8219 16.401 79.5553 16.2885C79.2894 16.176 79.0478 16.0113 78.8462 15.8041C78.6445 15.5968 78.486 15.3512 78.3805 15.0817C78.275 14.8122 78.2244 14.5243 78.2319 14.2349V14.2346ZM84.7609 14.2346C84.744 15.1025 84.9856 15.9557 85.455 16.6856C85.9238 17.4156 86.5999 17.9891 87.3958 18.333C88.1917 18.677 89.0725 18.7758 89.9246 18.6168C90.7767 18.458 91.5626 18.0485 92.1819 17.4407C92.8005 16.833 93.225 16.0544 93.4004 15.2043C93.5758 14.3542 93.494 13.4711 93.1663 12.6675C92.8386 11.8639 92.2793 11.1763 91.5595 10.6923C90.8397 10.2083 89.992 9.94983 89.1249 9.94989C88.5556 9.93564 87.9882 10.0361 87.4582 10.2454C86.9276 10.4546 86.4445 10.7683 86.0374 11.168C85.6304 11.5676 85.3083 12.045 85.0886 12.5718C84.8695 13.0986 84.7584 13.6641 84.7609 14.2349V14.2346ZM86.9601 14.2346C86.9482 13.9425 86.9957 13.6511 87.0993 13.3778C87.2029 13.1046 87.3602 12.855 87.5625 12.6443C87.7647 12.4335 88.0076 12.2658 88.276 12.1512C88.5444 12.0366 88.8334 11.9776 89.1249 11.9776C89.4171 11.9776 89.7061 12.0366 89.9745 12.1512C90.243 12.2658 90.4858 12.4335 90.6881 12.6443C90.8903 12.855 91.0476 13.1046 91.1512 13.3778C91.2549 13.6511 91.3023 13.9425 91.2905 14.2346C91.2992 14.5249 91.2499 14.8141 91.1456 15.0851C91.0407 15.356 90.8828 15.6031 90.6806 15.8118C90.4789 16.0204 90.2374 16.1863 89.9702 16.2996C89.703 16.4129 89.4159 16.4713 89.1256 16.4713C88.8353 16.4713 88.5482 16.413 88.281 16.2997C88.0138 16.1865 87.7716 16.0206 87.57 15.812C87.3677 15.6035 87.2098 15.3563 87.1049 15.0855C87.0007 14.8145 86.9513 14.5253 86.9601 14.2349V14.2346ZM102.116 10.1192H99.0204L96.1957 12.7781V6.30908H93.9965V18.333H96.1957V14.7768L99.6634 18.333H102.624L98.1065 13.8115L102.116 10.1192Z" fill="black"/>
</svg>
