<svg width="105" height="24" fill="none" xmlns="http://www.w3.org/2000/svg"><path d="M13.188 10.347c.93.175 1.586.568 1.97 1.174.384.61.575 1.567.575 2.873 0 2.597-.783 4.72-2.35 6.376-1.568 1.652-3.572 2.48-6.012 2.48a7.786 7.786 0 0 1-2.802-.518 6.944 6.944 0 0 1-2.334-1.445C1.49 20.607.93 19.89.559 19.131A5.222 5.222 0 0 1 0 16.806c0-.886.192-1.57.575-2.054.384-.485.987-.814 1.815-.989a8.172 8.172 0 0 1-.342-.91 2.203 2.203 0 0 1-.108-.573c0-.463.244-.939.736-1.423.492-.485.954-.725 1.39-.725.186 0 .384.033.59.1.205.066.444.176.714.331-.798-2.245-1.376-3.978-1.738-5.198-.36-1.221-.541-2.063-.541-2.528 0-.64.11-1.126.433-1.508C3.916.86 4.508.75 5.078.75c1.15 0 1.562.983 3.549 6.491.267.74.456 1.313.589 1.717.114-.319.275-.773.48-1.36 1.49-4.285 2.127-6.427 3.847-6.427.528 0 .948.177 1.265.534.314.354.472.833.472 1.428 0 .454-.172 1.282-.52 2.489-.344 1.201-.87 2.777-1.572 4.725Zm-11.11 6.304c.145.174.348.431.607.772.683.938 1.314 1.406 1.892 1.406a.82.82 0 0 0 .529-.185c.155-.125.233-.252.233-.388 0-.155-.103-.412-.311-.772a10.21 10.21 0 0 0-.854-1.22c-.414-.527-.758-.909-1.03-1.153-.276-.24-.495-.362-.66-.362-.36 0-.694.194-1 .578a2.139 2.139 0 0 0-.458 1.368c0 .423.105.894.316 1.414.212.52.52 1.044.923 1.57a6.15 6.15 0 0 0 2.274 1.877c.906.437 1.906.656 3.001.656 2.018 0 3.705-.75 5.067-2.248 1.359-1.497 2.04-3.377 2.04-5.633 0-.69-.053-1.238-.156-1.647-.103-.407-.275-.703-.511-.889-.426-.349-1.248-.664-2.474-.944a17.392 17.392 0 0 0-3.84-.418c-.373 0-.637.061-.793.186-.156.124-.233.335-.233.633 0 .701.392 1.207 1.178 1.523.787.316 2.06.47 3.816.47h.636c.145 0 .262.056.35.164.09.108.148.271.179.487-.176.166-.54.354-1.087.565-.548.21-.967.42-1.256.626A5.58 5.58 0 0 0 8.958 16.7c-.378.623-.567 1.213-.567 1.77 0 .34.08.75.241 1.228.162.48.242.776.242.889v.108l-.03.138c-.456-.03-.815-.296-1.079-.794-.264-.498-.394-1.166-.394-2.002V17.9a.7.7 0 0 1-.497.202c-.095 0-.182-.008-.265-.022a3.138 3.138 0 0 1-.278-.07 2.528 2.528 0 0 1 .092.588c0 .382-.15.708-.45.98-.3.274-.656.41-1.07.41-.65 0-1.315-.316-1.988-.95-.672-.634-1.008-1.254-1.008-1.863 0-.114.013-.213.038-.302a.516.516 0 0 1 .134-.221Zm4.653.37c.175 0 .337-.08.481-.24a.76.76 0 0 0 .217-.518c0-.197-.142-.65-.428-1.368a13.75 13.75 0 0 0-1.062-2.109c-.311-.515-.614-.905-.914-1.165-.3-.263-.584-.393-.853-.393-.217 0-.459.135-.723.41-.264.273-.395.528-.395.763 0 .247.131.618.39 1.113a10.53 10.53 0 0 0 1.039 1.575c.456.61.884 1.083 1.287 1.423.406.34.725.51.961.51Zm1.523-7.463L6.58 4.736C6.146 3.51 5.81 2.71 5.57 2.333c-.238-.376-.497-.564-.775-.564a.656.656 0 0 0-.528.246c-.133.166-.203.388-.203.664 0 .474.18 1.299.542 2.472.362 1.174.906 2.716 1.629 4.62a.519.519 0 0 1 .264-.24c.114-.047.27-.07.464-.07.061 0 .186.006.372.017.19.014.495.039.92.08Zm1.751 4.681a9.398 9.398 0 0 1-1.264-.138 6.555 6.555 0 0 1-1.14-.31c.164.33.312.659.442.988.13.33.236.654.317.975.247-.31.509-.59.784-.842s.561-.476.861-.673Zm2.065-4.155c.692-1.874 1.234-3.421 1.62-4.642.39-1.22.582-1.97.582-2.248 0-.299-.064-.531-.195-.694a.65.65 0 0 0-.536-.247c-.29 0-.584.241-.884.72-.3.479-.631 1.248-.992 2.311L10.114 9.75l1.956.335Z" fill="#050C26"></path><path d="m30.234 4.606 5.964 14.564H33.11l-1.462-3.607h-6.22l-1.414 3.607H21.09l5.92-14.564h3.224Zm-3.925 8.74h4.455l-2.203-5.457h-.092l-2.16 5.456ZM39.99 19.17h-2.785V8.973h2.785v1.664c.511-1.157 1.81-1.944 3.343-1.944 2.738 0 3.738 1.85 3.738 4.117v6.358h-2.784v-5.802c0-1.572-.626-2.475-1.996-2.475-1.415 0-2.298 1.11-2.298 2.821v5.456h-.003Zm13.19-3.538c-.836 0-1.6-.116-2.251-.371a.849.849 0 0 0-.417.739c0 .462.303.764 1.067.764h4.086c2.273 0 3.435 1.226 3.435 2.868 0 2.544-2.971 3.607-6.15 3.607-2.833 0-5.245-.717-5.245-2.613 0-1.041.837-1.78 2.043-1.94-.928-.303-1.415-1.042-1.415-1.872 0-.925.65-1.62 1.648-2.01-.88-.6-1.414-1.503-1.414-2.613 0-2.173 1.926-3.49 4.619-3.49 1.253 0 2.412.323 3.249.902.58-.809 1.6-1.456 2.715-1.456v2.22c-.556 0-1.231.091-1.765.276.278.44.442.972.442 1.548-.005 2.126-1.954 3.44-4.647 3.44Zm-.23 5.918c2.042 0 3.526-.462 3.526-1.456 0-.67-.555-.924-1.484-.924H51.58c-.742 0-1.345.301-1.345 1.04 0 .925 1.067 1.34 2.716 1.34Zm.255-11.164c-1.045 0-1.765.623-1.765 1.802 0 1.18.72 1.802 1.765 1.802 1.068 0 1.787-.623 1.787-1.802 0-1.18-.72-1.802-1.787-1.802Zm16.483 5.456c-.534 2.265-2.299 3.607-4.92 3.607-3.157 0-5.43-2.012-5.43-5.223 0-3.214 2.298-5.526 5.361-5.526 3.344 0 5.061 2.312 5.061 5.086v.993h-7.682c.092 1.503 1.276 2.566 2.785 2.566 1.37 0 2.182-.578 2.576-1.732l2.249.23Zm-2.646-2.798c-.092-1.18-.811-2.312-2.368-2.312-1.531 0-2.298 1.041-2.554 2.312h4.922Zm6.596-8.438v14.563h-2.785V4.606h2.785Zm4.644 0v12.16h5.506v2.406h-8.407V4.606h2.901Zm6.159 0h2.855v2.705h-2.855V4.606Zm2.832 4.368V19.17H84.49V8.974h2.784Zm3.314 6.73c.162 1.226 1.093 1.849 2.507 1.849 1.02 0 1.857-.346 1.857-1.085 0-.695-.464-.994-1.484-1.157l-1.626-.277c-2.182-.346-3.388-1.157-3.388-3.05 0-1.944 1.648-3.284 4.246-3.284 2.833 0 4.528 1.27 4.712 3.538l-2.3.091c-.185-1.154-.975-1.732-2.437-1.732-.998 0-1.648.44-1.648 1.132 0 .553.373.877 1.115.994l1.948.323c2.16.346 3.435 1.249 3.435 3.167 0 2.082-1.809 3.236-4.455 3.236-2.668 0-4.71-1.157-4.897-3.651l2.415-.094Zm8.435-4.786H97.56V9.276l.696-.116c.997-.16 1.275-.67 1.508-1.62l.326-1.387h1.695v2.821h2.785v1.94h-2.785v5.042c0 .877.395 1.27 1.232 1.27.556 0 1.136-.207 1.74-.484v1.827c-.743.553-1.579.877-2.832.877-1.579 0-2.903-.692-2.903-2.868v-5.66Z" fill="#000"></path></svg>
